<svg width="89" height="89" viewBox="0 0 89 89" fill="none" xmlns="http://www.w3.org/2000/svg">
<path d="M0.758498 88.2028C0.13777 87.743 -0.161099 87.1683 0.11478 86.4096C0.413649 85.6279 1.08036 85.559 1.81603 85.559C11.1729 85.559 20.5068 85.559 29.8637 85.582C30.6914 85.582 30.9442 85.398 30.8523 84.5474C30.3925 80.5012 29.9787 76.455 29.5419 72.4087C29.289 70.0638 28.9901 67.7418 28.8062 65.3968C28.6223 63.1208 30.4385 61.2356 32.8294 61.1437C33.772 61.1207 34.7146 61.1207 35.6572 61.1437C36.2549 61.1667 36.5538 60.9828 36.5308 60.316C36.5078 58.3389 36.5078 56.3618 36.5308 54.3847C36.5308 53.8789 36.4158 53.695 35.8871 53.9249C33.0133 55.2123 30.0476 56.3388 27.2659 57.7872C24.0013 59.4884 22.2081 62.3621 22.1391 66.0635C22.0471 70.9144 22.1161 75.7653 22.0931 80.5931C22.0931 81.0529 22.0701 81.5127 21.9782 81.9496C21.8172 82.7082 21.3115 83.0991 20.5528 83.0301C19.7941 82.9611 19.3803 82.4783 19.3113 81.7426C19.2884 81.5127 19.2884 81.2828 19.2884 81.0529C19.2884 76.271 19.2424 71.4662 19.2884 66.6843C19.3573 61.0057 22.0701 57.0055 27.1969 54.6605C28.9211 53.8789 30.6684 53.1432 32.3926 52.3845C32.6915 52.2466 33.0593 52.2006 33.2432 51.8788C33.1743 51.6259 32.9674 51.6029 32.7834 51.5339C26.3922 48.6832 24.3921 40.9356 28.6223 35.372C30.1396 33.3949 31.3811 31.3028 31.8868 28.8199C32.0937 27.8083 32.1397 26.7738 32.1627 25.7392C32.2317 22.6816 31.9328 19.6009 32.4846 16.5663C34.0019 8.08298 41.2667 1.18601 49.773 0.151468C60.9231 -1.13597 70.5329 5.89894 72.6249 16.8651C72.9238 18.4284 72.8778 19.9918 72.9008 21.5781C72.9238 23.6701 72.8089 25.7622 72.9928 27.8543C73.2687 30.6821 74.3952 33.142 76.1884 35.326C77.4068 36.8204 78.1425 38.5446 78.4184 40.4758C79.0161 44.9818 76.6482 49.4188 72.556 51.396C72.2801 51.5339 71.9812 51.6718 71.5214 51.8788C72.1192 52.1316 72.579 52.3156 73.0158 52.5225C75.1308 53.488 77.3839 54.1548 79.361 55.3962C83.3842 57.9021 85.5683 61.5345 85.6142 66.2934C85.6602 72.3628 85.6372 78.4551 85.6142 84.5244C85.6142 85.2831 85.7752 85.6739 86.6028 85.559C87.2695 85.467 87.7753 85.7659 88.1431 86.2946C88.1431 86.9154 88.396 87.789 88.0742 88.1108C87.7523 88.4327 86.8787 88.1798 86.258 88.1798C57.7735 88.2028 29.266 88.2028 0.758498 88.2028ZM53.1985 63.9944C46.6004 63.9944 40.0023 63.9944 33.4272 63.9944C31.8408 63.9944 31.45 64.4542 31.6569 66.0405C31.8179 67.3969 31.9788 68.7763 32.1167 70.1327C32.6225 74.9146 33.1743 79.6965 33.6111 84.4784C33.703 85.467 34.0709 85.6049 34.9445 85.6049C47.0602 85.582 59.1988 85.582 71.3145 85.582C71.5214 85.582 71.7053 85.582 71.9122 85.582C72.372 85.6049 72.602 85.398 72.6479 84.9382C72.8778 82.6622 73.1077 80.3862 73.3606 78.1102C73.7744 74.064 74.1883 70.0178 74.6481 65.9946C74.832 64.4312 74.5101 64.0174 72.9238 64.0174C66.3257 63.9944 59.7506 63.9944 53.1985 63.9944ZM64.2566 35.1651C63.1301 36.0387 62.0726 36.8663 60.8771 37.4871C60.3483 37.763 59.9805 38.1078 59.7046 38.6596C59.0379 39.97 57.9114 40.6597 56.463 40.7516C55.3595 40.8206 54.233 40.7976 53.1065 40.7516C51.1754 40.6827 49.5661 39.0964 49.4051 37.2112C49.2442 35.2571 50.6006 33.4868 52.5548 33.096C53.6583 32.8661 54.7848 32.9811 55.9113 32.9811C57.2907 32.9581 58.5091 33.4179 59.3828 34.5674C59.7046 35.0042 60.0035 34.9582 60.3943 34.7053C62.0726 33.6937 63.429 32.3603 64.3026 30.5901C64.4865 30.2223 64.5785 29.8544 64.5785 29.4406C64.5785 27.5784 64.5555 25.7162 64.5785 23.8541C64.5785 23.2103 64.3486 22.9345 63.7508 22.7965C61.8886 22.3367 60.1874 21.5091 58.6471 20.3826C57.7735 19.7389 57.5436 18.9572 58.0493 18.2675C58.5551 17.5548 59.3138 17.4859 60.2334 18.1296C62.9232 20.0147 65.9119 20.7504 69.1765 20.6125C69.9581 20.5895 70.142 20.2906 70.119 19.5549C69.9351 15.0259 68.1189 11.1866 65.0153 7.94505C64.5555 7.46226 64.2796 7.43927 63.8428 8.06C58.3252 16.0605 50.8305 21.0723 41.2667 22.9345C40.623 23.0494 40.3471 23.3023 40.3701 23.992C40.4161 27.0497 40.3701 30.1303 40.3931 33.188C40.4161 37.648 43.5887 41.7402 47.9568 42.6598C50.8995 43.2805 53.9801 43.2575 56.9228 42.6828C60.6472 41.9471 63.7278 38.6596 64.2566 35.1651ZM37.6343 20.4286V20.4056C38.2091 20.4056 38.7838 20.4056 39.3585 20.4056C39.5655 20.4056 39.7724 20.3826 39.9563 20.3596C49.1752 18.7503 56.4171 14.0604 61.7047 6.31276C62.0726 5.761 62.0036 5.50812 61.4289 5.18626C58.2333 3.39304 54.8537 2.56541 51.1983 2.88727C45.129 3.41603 40.554 6.35874 37.3814 11.4855C35.9101 13.8535 35.1284 16.4973 35.0135 19.3021C34.9675 20.3826 35.0364 20.4286 36.071 20.4516C36.6227 20.4286 37.1285 20.4286 37.6343 20.4286ZM82.9474 75.6043C82.9474 72.7076 82.9704 69.8109 82.9474 66.9142C82.8784 62.2932 80.8323 58.9137 76.5332 57.0285C74.1193 55.971 71.6824 54.9594 69.2684 53.9019C68.6247 53.603 68.3948 53.7409 68.4178 54.4536C68.4408 56.4078 68.4408 58.3619 68.4178 60.2931C68.4178 60.9138 68.6247 61.1667 69.2684 61.1437C70.6478 61.1207 72.0272 61.1207 73.3836 61.1437C75.9355 61.1897 77.6597 63.1208 77.4068 65.6497C76.7631 71.9719 76.1194 78.2942 75.4297 84.5934C75.3377 85.421 75.5676 85.559 76.3033 85.536C78.1655 85.49 80.0277 85.49 81.8899 85.536C82.6945 85.559 82.9934 85.3291 82.9704 84.4784C82.9244 81.5587 82.9474 78.57 82.9474 75.6043ZM51.957 57.0515C55.9113 57.1205 59.7966 56.6607 63.6129 55.6721C65.9809 55.0514 65.544 55.5571 65.613 53.0283C65.613 52.5225 65.4061 52.2236 64.9463 52.0857C64.6934 52.0167 64.4865 51.8788 64.2336 51.7868C61.2909 50.7293 59.1299 48.8671 58.2103 45.7864C58.0953 45.4186 57.8884 45.3726 57.5666 45.4186C54.21 45.9703 50.8305 45.9703 47.474 45.4186C47.0832 45.3496 46.8992 45.4646 46.7843 45.8324C45.8877 48.8211 43.8186 50.6143 41.0138 51.7638C39.0137 52.5685 39.4505 52.0857 39.3585 54.2927C39.3126 55.1203 39.5884 55.4882 40.4161 55.6951C44.1864 56.5687 48.0487 57.1205 51.957 57.0515ZM67.7051 49.6257C71.0156 49.6028 73.5445 48.1544 74.9009 45.3496C76.2573 42.5219 76.1654 39.7171 74.1883 37.2572C71.3375 33.7167 69.9811 29.7855 70.188 25.2335C70.28 23.0034 70.4639 23.4402 68.3488 23.3713C67.5672 23.3483 67.3832 23.6242 67.3832 24.3598C67.4062 27.2336 67.4522 30.0843 67.3832 32.9581C67.2683 37.556 65.3141 41.1884 61.4518 43.7173C60.7621 44.1771 60.7392 44.568 60.9231 45.2577C61.5208 47.5337 64.9693 49.8097 67.7051 49.6257ZM37.5653 29.0268C37.5653 27.3945 37.5653 26.0841 37.5653 24.7737C37.5653 23.0494 37.7033 23.2793 35.979 23.2103C35.1974 23.1874 34.9905 23.4862 35.0135 24.2219C35.0824 25.7162 35.0364 27.2106 34.8065 28.6819C34.3238 31.7626 33.0363 34.4754 31.0822 36.8663C29.9787 38.2228 29.289 39.7401 29.243 41.4873C29.174 44.6369 30.4385 47.1428 33.2432 48.6602C36.1859 50.2465 39.1287 50.0396 41.9334 48.1544C42.968 47.4647 43.6117 46.4531 44.0485 45.3036C44.3244 44.568 44.2094 44.1312 43.4967 43.6943C40.4391 41.7402 38.5769 38.9584 37.8642 35.418C37.3814 33.188 37.6113 30.9579 37.5653 29.0268ZM52.4168 61.1667C56.1412 61.1667 59.8655 61.1897 63.6129 61.1667C65.9119 61.1667 65.59 61.4885 65.613 59.1666C65.613 58.086 65.567 58.063 64.5555 58.3159C61.2449 59.1436 57.8654 59.6953 54.4629 59.8333C49.9799 60.0402 45.5198 59.6723 41.1518 58.6838C39.3586 58.2699 39.3815 58.3159 39.3585 60.1551C39.3356 60.9598 39.6114 61.1897 40.3931 61.1897C44.3703 61.1437 48.3936 61.1667 52.4168 61.1667ZM54.8078 37.9239C55.3595 37.9239 55.8883 37.9469 56.44 37.9239C57.0378 37.8779 57.3596 37.4871 57.3596 36.8893C57.3826 36.2916 57.0608 35.8548 56.486 35.8318C55.3825 35.7628 54.256 35.7628 53.1525 35.8318C52.5777 35.8548 52.2559 36.3146 52.2789 36.9123C52.2789 37.5101 52.6007 37.9009 53.1985 37.9469C53.7043 37.9469 54.256 37.9239 54.8078 37.9239Z" fill="black"/>
<path d="M19.5184 30.1077C17.5643 29.9928 15.1044 30.3146 12.6444 29.9238C5.4716 28.7743 0.0229899 22.3831 0 15.1183C0 7.69255 5.28768 1.39332 12.5755 0.220832C22.3232 -1.36547 30.9904 6.72697 30.0248 16.5667C29.703 19.7623 28.4615 22.613 26.3234 25.0039C25.7947 25.6017 25.8866 25.8776 26.5303 26.1534C26.8522 26.2914 27.1281 26.4753 27.404 26.6822C28.0937 27.165 28.4385 27.8317 28.2086 28.6823C28.0017 29.533 27.335 30.0617 26.3694 30.0617C24.2773 30.1077 22.1393 30.1077 19.5184 30.1077ZM18.6678 27.3949C19.9322 27.3949 21.1967 27.3949 22.4611 27.3949C22.783 27.3949 23.0129 27.3949 22.806 26.9121C22.2082 25.6017 22.3462 25.0959 23.3807 24.1073C26.2315 21.3486 27.4959 18.015 27.266 14.0378C26.9212 8.06039 21.1737 2.15198 13.7939 2.84168C7.56368 3.43942 2.0461 9.20988 2.82776 16.3368C3.4255 21.7164 7.31079 26.0385 12.5755 27.096C14.5986 27.5098 16.6447 27.3719 18.6678 27.3949Z" fill="black"/>
<path d="M48.1636 74.6615C48.2096 71.8568 50.4856 69.6957 53.2904 69.7647C56.0262 69.8336 58.1642 72.1096 58.1183 74.8914C58.0723 77.5812 55.7043 79.8572 53.0145 79.7653C50.2557 79.6733 48.1177 77.3973 48.1636 74.6615ZM55.2905 74.7305C55.2675 73.466 54.3939 72.5694 53.1295 72.5924C51.865 72.5924 50.8534 73.581 50.8994 74.7995C50.9224 75.9719 51.98 76.9835 53.1065 76.9835C54.3709 76.9605 55.3135 75.9949 55.2905 74.7305Z" fill="black"/>
<path d="M11.2423 15.0258C11.2653 15.7385 10.6216 16.4052 9.90892 16.4282C9.19624 16.4512 8.52953 15.8075 8.50654 15.0718C8.48355 14.3361 9.10428 13.6924 9.83995 13.6694C10.5526 13.6694 11.2193 14.3132 11.2423 15.0258Z" fill="black"/>
<path d="M16.415 15.0949C16.392 15.8075 15.7253 16.4513 15.0127 16.4513C14.3 16.4283 13.6562 15.7616 13.6562 15.0489C13.6792 14.3132 14.323 13.6925 15.0586 13.7155C15.7713 13.7155 16.415 14.3822 16.415 15.0949Z" fill="black"/>
<path d="M20.231 16.4509C19.5183 16.4739 18.8516 15.8302 18.8286 15.0945C18.8056 14.3588 19.4264 13.7151 20.162 13.6921C20.8747 13.6691 21.5414 14.3129 21.5644 15.0255C21.5874 15.7382 20.9437 16.4279 20.231 16.4509Z" fill="black"/>
</svg>
