<svg width="107" height="107" viewBox="0 0 107 107" fill="none" xmlns="http://www.w3.org/2000/svg">
<g filter="url(#filter0_i_47_361)">
<circle cx="53.1917" cy="53.1917" r="53.1917" fill="white"/>
</g>
<circle cx="53.1917" cy="53.1917" r="51.1917" stroke="#D8A95B" stroke-width="4"/>
<path d="M47.2734 30.1143C56.8257 30.3069 64.7059 38.3458 64.7061 47.9004C64.7059 60.3791 51.6145 69.147 40.0713 64.3291L39.7285 64.1865L39.4365 64.416C37.9012 65.6211 35.9669 66.2792 34.0117 66.2793C32.5173 66.2793 31.0564 65.8979 29.7305 65.1533L29.7207 65.1484L29.7109 65.1426L29.6367 65.0986C29.2809 64.8636 29.1628 64.3751 29.3809 64.0166C30.9158 61.5638 31.477 58.5553 30.7686 55.7129C30.5932 55.0092 30.398 54.3356 30.208 53.6836C30.017 53.0281 29.832 52.3973 29.668 51.7627C29.3411 50.4983 29.107 49.2438 29.1104 47.8564C29.1338 38.1096 37.1233 30.1739 46.8105 30.1113L47.2734 30.1143ZM47.2412 31.6982C38.2168 31.519 30.7161 38.8254 30.6943 47.8604C30.6908 49.3329 30.9766 50.6461 31.3271 51.9004C31.6857 53.183 32.0857 54.3294 32.3779 55.6279C32.9706 58.2616 32.6586 61.0478 31.4912 63.4824L31.1738 64.1436L31.875 64.3613C34.3435 65.1278 37.12 64.5175 39.0283 62.6729V62.6719C39.2662 62.442 39.6226 62.3847 39.9209 62.5273C50.5851 67.6258 63.122 59.6407 63.1221 47.9004C63.1221 39.1402 56.0004 31.8746 47.2412 31.6982Z" fill="#D8A95B" stroke="#D8A95B" stroke-width="1.2673"/>
<path d="M70.6128 46.9004C70.9481 46.62 71.4484 46.6643 71.729 47C74.3685 50.1582 75.8311 54.2126 75.8413 58.417C75.8472 60.824 75.3807 63.1582 74.4546 65.3574L74.4458 65.377L74.439 65.3965C73.3641 68.5082 73.8641 71.8276 75.5679 74.5723V74.5732C75.8038 74.9558 75.6546 75.4904 75.2397 75.7041L75.23 75.709L75.2202 75.7148C73.8946 76.459 72.4341 76.8397 70.9399 76.8398C68.9848 76.8398 67.0503 76.1815 65.5151 74.9766L65.2231 74.7471L64.8804 74.8906C58.7402 77.4532 51.4274 76.2842 46.3931 71.9365C46.0623 71.6507 46.0244 71.1506 46.3101 70.8193L46.311 70.8203C46.597 70.4892 47.0973 70.4524 47.4282 70.7383C52.095 74.7684 58.8525 75.771 64.4888 73.335L65.0308 73.0879C65.3287 72.9453 65.6851 73.0031 65.9233 73.2334C67.8316 75.078 70.608 75.689 73.0767 74.9219L73.7769 74.7041L73.4604 74.043C72.0828 71.1696 71.8913 67.8784 72.9595 64.8291C72.9648 64.814 72.9715 64.7972 72.979 64.7793L72.978 64.7783C73.8317 62.765 74.2626 60.625 74.2573 58.4209C74.2479 54.5383 72.9543 50.9362 70.5132 48.0156C70.2328 47.68 70.2775 47.1809 70.6128 46.9004Z" fill="#D8A95B" stroke="#D8A95B" stroke-width="1.2673"/>
<path d="M46.9108 46.3506C47.8069 46.3506 48.5328 47.0768 48.5328 47.9717C48.5327 48.8664 47.8068 49.5927 46.9108 49.5928C46.0147 49.5928 45.2889 48.8665 45.2887 47.9717C45.2887 47.0768 46.0146 46.3506 46.9108 46.3506Z" fill="#D8A95B" stroke="#D8A95B" stroke-width="1.2673"/>
<path d="M38.5984 46.3506C39.4945 46.3506 40.2205 47.0768 40.2205 47.9717C40.2203 48.8664 39.4944 49.5927 38.5984 49.5928C37.7023 49.5928 36.9765 48.8665 36.9763 47.9717C36.9763 47.0768 37.7022 46.3506 38.5984 46.3506Z" fill="#D8A95B" stroke="#D8A95B" stroke-width="1.2673"/>
<path d="M55.2214 46.3506C56.1176 46.3506 56.8435 47.0768 56.8435 47.9717C56.8433 48.8664 56.1175 49.5927 55.2214 49.5928C54.3253 49.5928 53.5995 48.8665 53.5994 47.9717C53.5994 47.0768 54.3252 46.3506 55.2214 46.3506Z" fill="#D8A95B" stroke="#D8A95B" stroke-width="1.2673"/>
<defs>
<filter id="filter0_i_47_361" x="0" y="0" width="106.383" height="110.384" filterUnits="userSpaceOnUse" color-interpolation-filters="sRGB">
<feFlood flood-opacity="0" result="BackgroundImageFix"/>
<feBlend mode="normal" in="SourceGraphic" in2="BackgroundImageFix" result="shape"/>
<feColorMatrix in="SourceAlpha" type="matrix" values="0 0 0 0 0 0 0 0 0 0 0 0 0 0 0 0 0 0 127 0" result="hardAlpha"/>
<feOffset dy="4"/>
<feGaussianBlur stdDeviation="4.85"/>
<feComposite in2="hardAlpha" operator="arithmetic" k2="-1" k3="1"/>
<feColorMatrix type="matrix" values="0 0 0 0 0 0 0 0 0 0 0 0 0 0 0 0 0 0 0.15 0"/>
<feBlend mode="normal" in2="shape" result="effect1_innerShadow_47_361"/>
</filter>
</defs>
</svg>
