<svg width="107" height="107" viewBox="0 0 107 107" fill="none" xmlns="http://www.w3.org/2000/svg">
<g filter="url(#filter0_i_45_359)">
<circle cx="53.1917" cy="53.1917" r="53.1917" fill="white"/>
</g>
<circle cx="53.1917" cy="53.1917" r="51.1917" stroke="#484848" stroke-width="4"/>
<path d="M34.0114 66.9127C32.4076 66.9127 30.8407 66.5035 29.4207 65.7061C28.6901 65.3299 28.4071 64.3885 28.8436 63.6803C30.2938 61.363 30.8174 58.5303 30.1535 55.8663C29.4653 53.1046 28.4695 50.7786 28.4766 47.8549C28.5013 37.5976 37.0389 29.282 47.2858 29.481C57.183 29.6804 65.3397 38.0002 65.3399 47.9001C65.34 60.8295 51.7898 69.907 39.8275 64.9142C38.1787 66.2084 36.1062 66.9127 34.0114 66.9127ZM32.0626 63.756C34.316 64.4558 36.8504 63.8968 38.588 62.2168C39.0162 61.8028 39.6567 61.6986 40.1939 61.9556C50.4353 66.8522 62.4886 59.1772 62.4885 47.9001C62.4885 39.485 55.6428 32.5011 47.2284 32.3317C38.5569 32.1594 31.3487 39.1824 31.3278 47.8618C31.321 50.6388 32.4045 52.8581 32.9966 55.4887C33.6204 58.2609 33.2918 61.1924 32.0626 63.756Z" fill="#202224"/>
<path d="M70.9398 77.4737C68.8451 77.4737 66.7725 76.7692 65.124 75.4752C58.7622 78.1303 51.1949 76.9212 45.9787 72.4165C45.3828 71.9019 45.317 71.0017 45.8315 70.4057C46.3461 69.8099 47.2463 69.7438 47.8422 70.2586C52.4685 74.2539 59.2438 75.1526 64.7575 72.5166C65.2946 72.2596 65.9349 72.3639 66.3633 72.7779C68.1009 74.4577 70.6353 75.0172 72.8887 74.3169C71.4387 71.2924 71.2378 67.8274 72.3615 64.6195C72.3716 64.5906 72.3827 64.5623 72.3945 64.534C73.2152 62.5993 73.6287 60.5431 73.6236 58.4228C73.6146 54.6844 72.371 51.2262 70.0271 48.4219C69.5222 47.8177 69.6026 46.9187 70.2067 46.4138C70.8107 45.9088 71.7099 45.9894 72.2148 46.5935C74.9515 49.8677 76.4644 54.0662 76.4748 58.4159C76.4809 60.9072 75.9975 63.3251 75.0382 65.6032C74.0305 68.5201 74.494 71.6432 76.1076 74.241C76.5445 74.9493 76.2612 75.8908 75.5304 76.2673C74.1106 77.0643 72.5434 77.4736 70.9398 77.4737Z" fill="#202224"/>
<path d="M46.9107 50.225C48.1565 50.225 49.1665 49.2156 49.1665 47.9704C49.1665 46.7252 48.1565 45.7158 46.9107 45.7158C45.6649 45.7158 44.6549 46.7252 44.6549 47.9704C44.6549 49.2156 45.6649 50.225 46.9107 50.225Z" fill="#202224"/>
<path d="M38.5983 50.225C39.8441 50.225 40.8541 49.2156 40.8541 47.9704C40.8541 46.7252 39.8441 45.7158 38.5983 45.7158C37.3525 45.7158 36.3425 46.7252 36.3425 47.9704C36.3425 49.2156 37.3525 50.225 38.5983 50.225Z" fill="#202224"/>
<path d="M55.2214 50.225C56.4672 50.225 57.4771 49.2156 57.4771 47.9704C57.4771 46.7252 56.4672 45.7158 55.2214 45.7158C53.9755 45.7158 52.9656 46.7252 52.9656 47.9704C52.9656 49.2156 53.9755 50.225 55.2214 50.225Z" fill="#202224"/>
<defs>
<filter id="filter0_i_45_359" x="0" y="0" width="106.383" height="110.384" filterUnits="userSpaceOnUse" color-interpolation-filters="sRGB">
<feFlood flood-opacity="0" result="BackgroundImageFix"/>
<feBlend mode="normal" in="SourceGraphic" in2="BackgroundImageFix" result="shape"/>
<feColorMatrix in="SourceAlpha" type="matrix" values="0 0 0 0 0 0 0 0 0 0 0 0 0 0 0 0 0 0 127 0" result="hardAlpha"/>
<feOffset dy="4"/>
<feGaussianBlur stdDeviation="4.85"/>
<feComposite in2="hardAlpha" operator="arithmetic" k2="-1" k3="1"/>
<feColorMatrix type="matrix" values="0 0 0 0 0 0 0 0 0 0 0 0 0 0 0 0 0 0 0.15 0"/>
<feBlend mode="normal" in2="shape" result="effect1_innerShadow_45_359"/>
</filter>
</defs>
</svg>
