<svg width="107" height="107" viewBox="0 0 107 107" fill="none" xmlns="http://www.w3.org/2000/svg">
<g filter="url(#filter0_i_47_417)">
<circle cx="53.1917" cy="53.1917" r="53.1917" fill="white"/>
</g>
<circle cx="53.1917" cy="53.1917" r="51.1917" stroke="#484848" stroke-width="4"/>
<g clip-path="url(#clip0_47_417)">
<path d="M38.3547 37.0703C38.7754 37.0703 39.1164 36.7293 39.1164 36.3086C39.1164 35.8879 38.7754 35.5469 38.3547 35.5469C37.934 35.5469 37.593 35.8879 37.593 36.3086C37.593 36.7293 37.9339 37.0703 38.3547 37.0703ZM32.2609 37.0703C32.6816 37.0703 33.0226 36.7293 33.0226 36.3086C33.0226 35.8879 32.6816 35.5469 32.2609 35.5469C31.8403 35.5469 31.4992 35.8879 31.4992 36.3086C31.4992 36.7293 31.8402 37.0703 32.2609 37.0703ZM35.3078 37.0703C35.7285 37.0703 36.0695 36.7293 36.0695 36.3086C36.0695 35.8879 35.7285 35.5469 35.3078 35.5469C34.8871 35.5469 34.5461 35.8879 34.5461 36.3086C34.5461 36.7293 34.887 37.0703 35.3078 37.0703ZM35.1407 45.1398C35.1454 45.1399 35.1501 45.1399 35.1548 45.1399L42.0416 45.1416H42.042C42.5178 45.1416 42.9217 44.8333 43.0474 44.3745C43.1731 43.9154 42.9823 43.4443 42.5728 43.202L41.5254 42.5823C43.2089 40.9137 44.1557 38.6371 44.1407 36.2518C44.1105 31.4816 40.2063 27.5452 35.4375 27.4765C30.496 27.4055 26.4746 31.4027 26.4746 36.3088C26.4746 41.0135 30.351 45.0379 35.1407 45.1398ZM30.1766 31.1027C31.5812 29.7182 33.4377 28.9722 35.4157 28.9998C39.3617 29.0565 42.5923 32.314 42.6173 36.2614C42.6308 38.391 41.7175 40.4163 40.1116 41.8177C39.8431 42.0519 39.7024 42.4034 39.7349 42.7579C39.7674 43.1123 39.9698 43.432 40.276 43.6131L40.2837 43.6175L35.1623 43.6163C31.2032 43.5404 27.998 40.2788 27.998 36.3088C27.998 34.3364 28.7718 32.4875 30.1766 31.1027ZM77.7129 77.9522H76.9512V66.6087C76.9512 63.6367 75.1951 60.938 72.4687 59.7295L68.4544 58.0089C69.4312 57.7007 70.3137 57.1511 71.0317 56.3886C72.1151 55.2384 72.7363 53.6777 72.7363 52.1066C72.7363 50.663 72.232 49.3005 71.2776 48.1659C70.0838 46.7484 69.4264 44.9469 69.4264 43.093V39.4428C69.4264 36.2458 68.1814 33.2408 65.9208 30.9813C63.6602 28.7206 60.6549 27.4756 57.4583 27.4756C50.8596 27.4756 45.4912 32.844 45.4912 39.4427V42.974C45.4916 44.8924 44.7377 46.7234 43.5126 48.1994C41.9708 50.057 41.6505 52.5685 42.6768 54.7539C43.4385 56.376 44.8124 57.5415 46.4572 58.0347L42.4709 59.7682C39.6742 60.9451 37.867 63.6661 37.867 66.7002V75.6671C37.867 76.0878 38.2079 76.4288 38.6287 76.4288C39.0495 76.4288 39.3904 76.0878 39.3904 75.6671V66.7002C39.3904 64.2807 40.8315 62.1109 43.0701 61.1689L48.0668 58.996V63.5811H45.7712C45.1242 63.5811 44.505 63.8569 44.0722 64.3379C43.6396 64.8189 43.4306 65.4637 43.4988 66.107L44.7544 77.9522H27.2363C26.8156 77.9522 26.4746 78.2932 26.4746 78.7139C26.4746 79.1346 26.8156 79.4756 27.2363 79.4756H77.7129C78.1337 79.4756 78.4746 79.1346 78.4746 78.7139C78.4746 78.2932 78.1337 77.9522 77.7129 77.9522ZM70.1121 49.1468C70.8322 50.003 71.2129 51.0264 71.2129 52.1065C71.2129 53.2935 70.7427 54.4735 69.9227 55.3441C69.0546 56.2657 67.8619 56.7733 66.5645 56.7733H65.5718L64.2678 56.2144C63.1288 55.7259 62.3496 54.6787 62.1904 53.4733C64.5406 52.2078 66.142 49.7242 66.142 46.873V41.1466C66.3649 41.1618 66.5876 41.17 66.8097 41.17C67.1761 41.17 67.541 41.1492 67.9031 41.1081V43.0929C67.903 45.3053 68.6876 47.4554 70.1121 49.1468ZM57.6434 61.1719C54.9184 61.2202 52.2139 60.8748 49.5902 60.1471V58.3335L49.8105 58.2378C49.8122 58.2371 49.814 58.2362 49.8158 58.2355L51.1747 57.6446C52.6874 56.987 53.7563 55.6401 54.0804 54.0661C54.7437 54.259 55.4438 54.3644 56.1685 54.3644H58.6506C59.3781 54.3644 60.0808 54.2581 60.7464 54.0639C61.0811 55.6307 62.1541 56.9655 63.6675 57.6147L65.1178 58.2362C65.1187 58.2367 65.1196 58.2371 65.1206 58.2374L65.228 58.2834V59.9974C62.7628 60.7319 60.2142 61.127 57.6434 61.1719ZM65.2278 61.5834V63.5812H49.5902V61.7246C52.0596 62.3721 54.595 62.6997 57.1476 62.6997C57.3217 62.6997 57.4959 62.6982 57.67 62.6951C60.2284 62.6505 62.7658 62.2766 65.2278 61.5834ZM67.903 39.5721C65.8048 39.8556 63.4397 39.2935 61.8102 38.031C61.4778 37.7734 60.9994 37.834 60.7416 38.1666C60.4839 38.4991 60.5447 38.9776 60.8772 39.2352C61.9425 40.0605 63.2273 40.6419 64.6185 40.935V45.0819C64.2525 45.9161 63.845 46.6099 62.9264 47.3677C62.5397 47.6868 62.1163 47.9518 61.663 48.1621C61.2928 47.4396 60.5409 46.9438 59.675 46.9438H57.8899C56.6587 46.9438 55.6571 47.9455 55.6571 49.1767C55.6571 50.4078 56.6587 51.4095 57.8899 51.4095H59.675C60.7111 51.4095 61.5846 50.7 61.8353 49.7415C62.8543 49.3532 64.5158 47.9681 64.5162 47.9676C64.0003 50.7369 61.5673 52.8405 58.6507 52.8405H56.1684C52.8778 52.8405 50.2006 50.1634 50.2006 46.8727V40.9847C52.7877 40.5792 55.2318 39.7037 57.4733 38.3779C60.8862 36.3592 63.0754 33.7212 64.3965 31.637C66.657 33.6503 67.9429 36.5366 67.903 39.5721ZM60.3842 49.1788C60.3831 49.5691 60.0654 49.8863 59.6749 49.8863H57.8898C57.4986 49.8863 57.1804 49.568 57.1804 49.1769C57.1804 48.7858 57.4987 48.4675 57.8898 48.4675H59.6749C60.0653 48.4675 60.3829 48.7844 60.3842 49.1745V49.1788ZM47.0146 39.4427C47.0146 33.684 51.6996 28.999 57.4583 28.999C59.5236 28.999 61.4971 29.5952 63.1836 30.7051C61.9678 32.654 59.9214 35.1601 56.6977 37.0671C54.4862 38.3752 52.0603 39.2103 49.4874 39.5494H49.4398C49.4395 39.5494 49.4392 39.5494 49.4388 39.5494C49.4384 39.5494 49.4382 39.5494 49.4378 39.5494H47.0145V39.4427H47.0146ZM44.0556 54.1063C43.2832 52.4612 43.5243 50.5706 44.684 49.1735C46.139 47.4204 47.0162 45.2543 47.0146 42.974V41.0728H48.6772V46.873C48.6772 49.7258 50.2806 52.2106 52.6329 53.4754C52.4858 54.69 51.7089 55.751 50.5672 56.2474L49.3578 56.7733H48.2537C46.4367 56.7733 44.8282 55.7514 44.0556 54.1063ZM70.5722 65.9466L69.2996 77.9522H46.2864L45.0137 65.9466C44.9907 65.7289 45.0585 65.5195 45.2049 65.3569C45.3512 65.1942 45.5524 65.1046 45.7712 65.1046H69.8148C70.0335 65.1046 70.2347 65.1942 70.3811 65.3569C70.5274 65.5195 70.5953 65.7289 70.5722 65.9466ZM75.4277 77.9522H70.8315L72.0871 66.1072C72.1554 65.4638 71.9463 64.819 71.5137 64.338C71.081 63.857 70.4618 63.5812 69.8148 63.5812H66.7513V58.9364L71.8599 61.126C74.0273 62.0868 75.4277 64.2388 75.4277 66.6087V77.9522ZM57.7929 68.6338C56.1969 68.6338 54.8984 69.9323 54.8984 71.5283C54.8984 73.1244 56.1969 74.4229 57.7929 74.4229C59.389 74.4229 60.6875 73.1244 60.6875 71.5283C60.6875 69.9323 59.389 68.6338 57.7929 68.6338ZM57.7929 72.8994C57.0369 72.8994 56.4218 72.2844 56.4218 71.5283C56.4218 70.7723 57.0369 70.1572 57.7929 70.1572C58.549 70.1572 59.164 70.7723 59.164 71.5283C59.164 72.2844 58.5491 72.8994 57.7929 72.8994Z" fill="#484848"/>
</g>
<defs>
<filter id="filter0_i_47_417" x="0" y="0" width="106.383" height="110.384" filterUnits="userSpaceOnUse" color-interpolation-filters="sRGB">
<feFlood flood-opacity="0" result="BackgroundImageFix"/>
<feBlend mode="normal" in="SourceGraphic" in2="BackgroundImageFix" result="shape"/>
<feColorMatrix in="SourceAlpha" type="matrix" values="0 0 0 0 0 0 0 0 0 0 0 0 0 0 0 0 0 0 127 0" result="hardAlpha"/>
<feOffset dy="4"/>
<feGaussianBlur stdDeviation="4.85"/>
<feComposite in2="hardAlpha" operator="arithmetic" k2="-1" k3="1"/>
<feColorMatrix type="matrix" values="0 0 0 0 0 0 0 0 0 0 0 0 0 0 0 0 0 0 0.15 0"/>
<feBlend mode="normal" in2="shape" result="effect1_innerShadow_47_417"/>
</filter>
<clipPath id="clip0_47_417">
<rect width="52" height="52" fill="white" transform="translate(26.4746 27.4756)"/>
</clipPath>
</defs>
</svg>
