<svg width="43" height="51" viewBox="0 0 43 51" fill="none" xmlns="http://www.w3.org/2000/svg">
<path d="M21.6711 46.4605C21.7392 46.5518 21.8273 46.6264 21.9288 46.6783C22.0303 46.7301 22.1424 46.758 22.2565 46.7595H22.2662C22.3784 46.7595 22.4893 46.7339 22.5904 46.6849C22.6913 46.6357 22.7797 46.5645 22.8489 46.4761C23.4619 45.6961 37.8527 27.2408 37.8527 15.5522C37.8527 11.4275 36.2106 7.47173 33.2874 4.55511C30.3645 1.63853 26.4 0 22.2662 0C18.1324 0 14.1679 1.63853 11.2449 4.55511C8.32184 7.47173 6.67969 11.4275 6.67969 15.5522C6.67969 20.0286 9.21107 26.6017 14.2044 35.0879C17.8933 41.3575 21.6339 46.4104 21.6711 46.4605ZM22.2662 1.47806C26.0058 1.4822 29.5912 2.96638 32.2356 5.605C34.8799 8.2436 36.3673 11.8211 36.3713 15.5526C36.3713 25.4214 25.0388 41.1099 22.2813 44.7803C19.5575 40.968 8.16101 24.5004 8.16101 15.5526C8.16504 11.8211 9.65241 8.2436 12.2968 5.605C14.9411 2.96638 18.5265 1.4822 22.2662 1.47806Z" fill="black"/>
<path d="M33.2297 15.5018C33.2299 13.3167 32.5819 11.1806 31.3682 9.36369C30.1542 7.54679 28.4288 6.13065 26.4101 5.29438C24.3912 4.4581 22.1699 4.23924 20.0267 4.66547C17.8836 5.09169 15.915 6.14387 14.3699 7.68894C12.8247 9.23401 11.7725 11.2026 11.3461 13.3457C10.9198 15.4888 11.1385 17.7102 11.9747 19.729C12.8109 21.7478 14.227 23.4732 16.0438 24.6872C17.8606 25.9012 19.9967 26.5491 22.1818 26.5491C25.1109 26.546 27.9189 25.381 29.9901 23.31C32.0614 21.2389 33.2266 18.4308 33.2297 15.5018ZM22.1818 24.7226C20.3579 24.7226 18.575 24.1818 17.0586 23.1686C15.5421 22.1552 14.3602 20.715 13.6622 19.03C12.9643 17.345 12.7817 15.4908 13.1376 13.702C13.4934 11.9132 14.3717 10.2701 15.6614 8.98051C16.9511 7.69088 18.5943 6.81267 20.3831 6.45692C22.1719 6.10117 24.0261 6.28386 25.711 6.98189C27.3961 7.67992 28.8363 8.86194 29.8494 10.3785C30.8625 11.895 31.4034 13.6779 31.4032 15.5018C31.4003 17.9465 30.4279 20.2903 28.6991 22.0189C26.9704 23.7476 24.6266 24.7199 22.1818 24.7226Z" fill="black"/>
<path d="M30.6353 39.4357C30.3979 39.4123 30.1608 39.4827 29.9744 39.6318C29.7883 39.781 29.6678 39.997 29.6386 40.2339C29.6097 40.4706 29.6745 40.7095 29.819 40.8992C29.9637 41.089 30.177 41.2145 30.4131 41.2491C38.276 42.2141 40.8202 44.0344 40.8202 44.7645C40.8202 46.1354 33.9387 48.8036 21.3231 48.8036C8.7074 48.8036 1.82602 46.1334 1.82602 44.7645C1.82602 43.9816 4.32107 42.38 11.0177 41.4114C11.2527 41.3715 11.4628 41.2413 11.6031 41.0487C11.7435 40.8558 11.8029 40.616 11.7689 40.38C11.7349 40.1442 11.61 39.9309 11.4209 39.7857C11.2318 39.6405 10.9935 39.5751 10.7568 39.6031C5.8512 40.3134 0 41.7846 0 44.7645C0 49.0684 12.7519 50.6304 21.3236 50.6304C29.8954 50.6304 42.6471 49.0684 42.6471 44.7645C42.6467 41.4109 35.1213 39.9868 30.6353 39.4357Z" fill="black"/>
</svg>
