<svg width="98" height="79" viewBox="0 0 98 79" fill="none" xmlns="http://www.w3.org/2000/svg">
<path d="M57.1667 63.7001H40.8335C40.619 63.7 40.4065 63.7422 40.2084 63.8242C40.0102 63.9063 39.8301 64.0266 39.6784 64.1783C39.5267 64.33 39.4064 64.51 39.3244 64.7082C39.2423 64.9064 39.2001 65.1188 39.2002 65.3333V76.7666C39.2001 76.9811 39.2423 77.1935 39.3244 77.3917C39.4064 77.5899 39.5267 77.77 39.6784 77.9217C39.8301 78.0734 40.0102 78.1937 40.2084 78.2757C40.4065 78.3578 40.619 78.4 40.8335 78.3999H57.1667C57.3813 78.4001 57.5938 78.358 57.792 78.276C57.9902 78.194 58.1704 78.0737 58.3221 77.922C58.4738 77.7703 58.5941 77.5901 58.6761 77.3919C58.7581 77.1936 58.8002 76.9812 58.8 76.7666V65.3333C58.8002 65.1188 58.7581 64.9063 58.6761 64.7081C58.5941 64.5098 58.4738 64.3297 58.3221 64.178C58.1704 64.0263 57.9902 63.906 57.792 63.824C57.5938 63.742 57.3813 63.6999 57.1667 63.7001ZM55.5333 75.1333H42.4665V66.9666H55.5333V75.1333Z" fill="black"/>
<path d="M47.3668 65.3333H50.6336V76.7665H47.3668V65.3333Z" fill="black"/>
<path d="M65.3333 1.0099e-07H32.6667C32.2336 0.000152297 31.8183 0.172277 31.512 0.478541C31.2057 0.784806 31.0336 1.20015 31.0334 1.63327V76.7665C31.0334 76.981 31.0756 77.1935 31.1576 77.3916C31.2397 77.5898 31.36 77.7699 31.5117 77.9216C31.6633 78.0733 31.8434 78.1936 32.0416 78.2756C32.2398 78.3577 32.4522 78.3999 32.6667 78.3998H65.3335C65.548 78.4 65.7605 78.3579 65.9587 78.2759C66.157 78.1939 66.3371 78.0736 66.4888 77.9219C66.6405 77.7702 66.7608 77.59 66.8428 77.3918C66.9248 77.1935 66.9669 76.9811 66.9667 76.7665V1.63327C66.9668 1.41876 66.9245 1.20633 66.8425 1.00814C66.7604 0.809948 66.6401 0.629869 66.4884 0.478194C66.3367 0.326518 66.1566 0.206218 65.9584 0.124168C65.7602 0.0421173 65.5478 -7.53407e-05 65.3333 1.0099e-07ZM63.7 75.1333H34.3V3.26673H63.7V75.1333Z" fill="black"/>
<path d="M32.6667 6.53333H19.5999C19.1668 6.53348 18.7515 6.7056 18.4452 7.01187C18.139 7.31813 17.9668 7.73347 17.9667 8.16659V76.7666C17.9666 76.9811 18.0088 77.1935 18.0908 77.3917C18.1729 77.5899 18.2932 77.77 18.4449 77.9217C18.5966 78.0733 18.7766 78.1936 18.9748 78.2757C19.173 78.3577 19.3854 78.3999 19.5999 78.3999H32.6667C32.8812 78.3999 33.0936 78.3577 33.2918 78.2757C33.49 78.1936 33.6701 78.0733 33.8217 77.9217C33.9734 77.77 34.0937 77.5899 34.1758 77.3917C34.2578 77.1935 34.3 76.9811 34.2999 76.7666V8.16659C34.2998 7.73347 34.1277 7.31813 33.8214 7.01187C33.5151 6.7056 33.0998 6.53348 32.6667 6.53333ZM31.0332 75.1333H21.2332V9.80006H31.0332V75.1333Z" fill="black"/>
<path d="M14.7001 6.53327H19.6001V9.8H14.7001V6.53327ZM27.7668 0H70.2335V3.26673H27.7668V0ZM37.5668 55.5333H40.8335V60.4333H37.5668V55.5333ZM44.1001 55.5333H47.3668V60.4333H44.1001V55.5333ZM50.6333 55.5333H53.9001V60.4333H50.6333V55.5333ZM57.1668 55.5333H60.4335V60.4333H57.1668V55.5333ZM37.5668 47.3667H40.8335V52.2667H37.5668V47.3667ZM44.1001 47.3667H47.3668V52.2667H44.1001V47.3667ZM50.6333 47.3667H53.9001V52.2667H50.6333V47.3667ZM57.1668 47.3667H60.4335V52.2667H57.1668V47.3667ZM37.5668 39.2H40.8335V44.1H37.5668V39.2ZM44.1001 39.2H47.3668V44.1H44.1001V39.2ZM50.6333 39.2H53.9001V44.1H50.6333V39.2ZM57.1668 39.2H60.4335V44.1H57.1668V39.2ZM37.5668 31.0333H40.8335V35.9333H37.5668V31.0333ZM44.1001 31.0333H47.3668V35.9333H44.1001V31.0333ZM50.6333 31.0333H53.9001V35.9333H50.6333V31.0333ZM57.1668 31.0333H60.4335V35.9333H57.1668V31.0333ZM37.5668 22.8667H40.8335V27.7667H37.5668V22.8667ZM44.1001 22.8667H47.3668V27.7667H44.1001V22.8667ZM50.6333 22.8667H53.9001V27.7667H50.6333V22.8667ZM57.1668 22.8667H60.4335V27.7667H57.1668V22.8667ZM37.5668 14.7H40.8335V19.6H37.5668V14.7ZM44.1001 14.7H47.3668V19.6H44.1001V14.7ZM50.6333 14.7H53.9001V19.6H50.6333V14.7ZM57.1668 14.7H60.4335V19.6H57.1668V14.7ZM37.5668 6.53327H40.8335V11.4333H37.5668V6.53327ZM44.1001 6.53327H47.3668V11.4333H44.1001V6.53327ZM50.6333 6.53327H53.9001V11.4333H50.6333V6.53327ZM57.1668 6.53327H60.4335V11.4333H57.1668V6.53327ZM24.5001 63.7H27.7668V68.6H24.5001V63.7ZM24.5001 55.5333H27.7668V60.4333H24.5001V55.5333ZM24.5001 47.3667H27.7668V52.2667H24.5001V47.3667ZM24.5001 39.2H27.7668V44.1H24.5001V39.2ZM24.5001 31.0333H27.7668V35.9333H24.5001V31.0333ZM24.5001 22.8667H27.7668V27.7667H24.5001V22.8667ZM24.5001 14.7H27.7668V19.6H24.5001V14.7ZM78.4001 6.53327H65.3333C65.1188 6.53319 64.9064 6.57539 64.7082 6.65744C64.51 6.73949 64.3299 6.8598 64.1783 7.01147C64.0266 7.16315 63.9063 7.34323 63.8242 7.54142C63.7422 7.73962 63.7 7.95203 63.7001 8.16654V76.7665C63.6999 76.9811 63.742 77.1936 63.824 77.3918C63.906 77.59 64.0263 77.7702 64.178 77.9219C64.3297 78.0736 64.5098 78.1939 64.7081 78.2759C64.9063 78.3579 65.1188 78.4 65.3333 78.3998H78.4001C78.6146 78.4 78.8271 78.3579 79.0253 78.2759C79.2236 78.1939 79.4037 78.0736 79.5554 77.9219C79.7071 77.7702 79.8274 77.59 79.9094 77.3918C79.9914 77.1936 80.0335 76.9811 80.0333 76.7665V8.16654C80.0334 7.95203 79.9912 7.73962 79.9092 7.54142C79.8271 7.34323 79.7068 7.16315 79.5551 7.01147C79.4035 6.8598 79.2234 6.73949 79.0252 6.65744C78.827 6.57539 78.6146 6.53319 78.4001 6.53327ZM76.7668 75.1333H66.9668V9.8H76.7668V75.1333Z" fill="black"/>
<path d="M78.4 6.53333H83.3V9.80006H78.4V6.53333ZM70.2333 63.7001H73.5V68.6001H70.2333V63.7001ZM70.2333 55.5333H73.5V60.4333H70.2333V55.5333ZM70.2333 47.3668H73.5V52.2668H70.2333V47.3668ZM70.2333 39.2001H73.5V44.1001H70.2333V39.2001ZM70.2333 31.0333H73.5V35.9333H70.2333V31.0333ZM70.2333 22.8668H73.5V27.7668H70.2333V22.8668ZM70.2333 14.7001H73.5V19.6001H70.2333V14.7001ZM0 75.1333H19.6V78.4001H0V75.1333ZM78.4 75.1333H98V78.4001H78.4V75.1333Z" fill="black"/>
<path d="M6.53333 42.4668H9.80006V76.7668H6.53333V42.4668Z" fill="black"/>
<path d="M0.653198 47.04L2.6132 44.4268L15.6799 54.2268L13.7199 56.84L0.653198 47.04Z" fill="black"/>
<path d="M0.650146 54.2308L13.7155 44.427L15.6765 47.0403L2.61072 56.8441L0.650146 54.2308ZM88.1999 42.4668H91.4667V76.7668H88.1999V42.4668Z" fill="black"/>
<path d="M82.3199 47.04L84.279 44.4279L97.3455 54.2279L95.3865 56.8398L82.3199 47.04Z" fill="black"/>
<path d="M82.3107 54.2328L95.3785 44.4364L97.3366 47.0485L84.2689 56.8447L82.3107 54.2328Z" fill="black"/>
</svg>
