<svg width="47" height="51" viewBox="0 0 47 51" fill="none" xmlns="http://www.w3.org/2000/svg">
<path d="M46.7035 46.7779V19.0711C46.6646 18.8863 46.6783 18.7544 46.4931 18.5912L46.4913 18.5898C38.3976 11.4578 41.594 14.2744 40.8184 13.5909V7.58092C40.8184 5.55523 39.17 3.90697 37.1441 3.90697H29.8289L26.9211 1.34438C24.8876 -0.447965 21.8195 -0.447965 19.7856 1.34438L16.8776 3.90697H9.56248C7.53658 3.90697 5.88851 5.55533 5.88851 7.58092V13.5908L0.232315 18.5748C0.0852622 18.6942 0 18.9039 0 19.0578V46.7779C0 48.9073 1.75094 50.6218 3.84386 50.6218H42.8598C45.0035 50.6218 46.7035 48.8615 46.7035 46.7779ZM45.454 20.4441V46.7779C45.454 47.2153 45.3349 47.6216 45.1429 47.9833L29.5034 34.4998L45.454 20.4441ZM45.1334 19.0584L40.8184 22.8606V15.2559L45.1334 19.0584ZM20.6117 2.28155C22.1746 0.904133 24.532 0.90464 26.0949 2.28155L27.9393 3.90697H18.767L20.6117 2.28155ZM9.56237 5.15648H37.1441C38.481 5.15648 39.5687 6.24399 39.5687 7.58092V23.9618L28.5466 33.6747L26.3894 31.815C24.6576 30.2857 22.0458 30.2843 20.3194 31.8101L18.1567 33.6747L7.13794 23.9647V7.58092C7.13794 6.24399 8.22544 5.15648 9.56237 5.15648ZM1.56043 47.9833C1.3685 47.6216 1.24941 47.2152 1.24941 46.7779V20.4411L17.2012 34.4986L1.56043 47.9833ZM5.8884 15.2559V22.8636L1.57181 19.0598L5.8884 15.2559ZM3.84376 49.3722C3.01942 49.3722 2.4357 48.9437 2.3858 48.9214L21.1413 32.751C22.401 31.6387 24.302 31.6382 25.5677 32.7559L44.3175 48.9216C43.9025 49.2046 43.346 49.3722 42.8596 49.3722H3.84376Z" fill="black"/>
<path d="M11.0281 11.8427H35.6796C36.0247 11.8427 36.3043 11.563 36.3043 11.2178C36.3043 10.8727 36.0247 10.593 35.6796 10.593H11.0281C10.6831 10.593 10.4033 10.8727 10.4033 11.2178C10.4033 11.563 10.683 11.8427 11.0281 11.8427Z" fill="black"/>
<path d="M11.0281 18.2306H35.6796C36.0247 18.2306 36.3043 17.9509 36.3043 17.6057C36.3043 17.2606 36.0247 16.981 35.6796 16.981H11.0281C10.6831 16.981 10.4033 17.2606 10.4033 17.6057C10.4033 17.9509 10.683 18.2306 11.0281 18.2306Z" fill="black"/>
<path d="M11.0281 24.619H28.1868C28.5319 24.619 28.8116 24.3394 28.8116 23.9941C28.8116 23.649 28.5319 23.3694 28.1868 23.3694H11.0281C10.6831 23.3694 10.4033 23.649 10.4033 23.9941C10.4033 24.3394 10.683 24.619 11.0281 24.619Z" fill="black"/>
</svg>
