<svg width="184" height="184" viewBox="0 0 184 184" fill="none" xmlns="http://www.w3.org/2000/svg">
<mask id="mask0_45_233" style="mask-type:alpha" maskUnits="userSpaceOnUse" x="29" y="29" width="126" height="126">
<path d="M153.586 82.6366C153.728 83.6167 153.846 84.6041 153.943 85.598L153.398 85.6509C153.492 86.6272 153.565 87.6099 153.613 88.5985L154.161 88.5721C154.21 89.5594 154.235 90.5525 154.237 91.5509L153.689 91.552C153.69 92.0441 153.686 92.5378 153.675 93.0325C153.665 93.5425 153.648 94.0514 153.625 94.5581L154.173 94.5815C154.126 95.6089 154.055 96.6296 153.959 97.6431L153.414 97.5924C153.318 98.6067 153.198 99.6137 153.054 100.613L153.597 100.69C153.451 101.707 153.28 102.716 153.085 103.716L152.547 103.612C152.353 104.611 152.136 105.602 151.894 106.583L152.427 106.713C152.181 107.71 151.912 108.697 151.62 109.674L151.094 109.518C150.803 110.492 150.488 111.456 150.151 112.409L150.668 112.592C150.326 113.559 149.96 114.514 149.572 115.458L149.065 115.251C148.679 116.191 148.271 117.119 147.841 118.035L148.338 118.268C147.902 119.195 147.444 120.111 146.965 121.013L146.48 120.756C146.003 121.653 145.506 122.537 144.988 123.407L145.458 123.687C144.934 124.567 144.388 125.433 143.823 126.284L143.366 125.98C142.804 126.826 142.222 127.657 141.621 128.472L142.062 128.797C141.454 129.621 140.827 130.429 140.18 131.221L139.755 130.874C139.113 131.66 138.452 132.43 137.774 133.183L138.182 133.551C137.497 134.311 136.794 135.054 136.073 135.78L135.683 135.393C134.968 136.113 134.236 136.815 133.487 137.499L133.856 137.904C133.1 138.594 132.328 139.265 131.539 139.917L131.19 139.493C130.409 140.139 129.611 140.767 128.799 141.375L129.127 141.814C128.309 142.427 127.474 143.019 126.625 143.592L126.319 143.137C125.479 143.703 124.624 144.25 123.756 144.775L124.04 145.244C123.165 145.773 122.277 146.281 121.376 146.768L121.116 146.286C120.225 146.767 119.32 147.226 118.404 147.664L118.64 148.159C117.718 148.6 116.785 149.019 115.839 149.415L115.628 148.908C114.695 149.299 113.75 149.668 112.794 150.013L112.98 150.529C112.02 150.876 111.05 151.201 110.07 151.502L109.909 150.978C108.942 151.274 107.966 151.548 106.98 151.797L107.114 152.329C106.125 152.579 105.128 152.807 104.121 153.01L104.014 152.472C103.023 152.671 102.025 152.847 101.018 152.998L101.099 153.54C100.091 153.692 99.076 153.82 98.0537 153.923L97.9999 153.378C96.9956 153.479 95.9844 153.556 94.9669 153.608L94.9944 154.156C93.9778 154.208 92.955 154.236 91.9265 154.239L91.9264 153.69C91.4192 153.692 90.91 153.687 90.4 153.676C89.8902 153.666 89.382 153.648 88.8754 153.625L88.85 154.174C87.8226 154.127 86.802 154.056 85.7885 153.96L85.8401 153.414C84.8258 153.319 83.8188 153.199 82.8197 153.055L82.7418 153.598C81.7247 153.452 80.716 153.28 79.7158 153.086L79.82 152.548C78.821 152.354 77.8307 152.136 76.8498 151.895L76.7184 152.428C75.7215 152.182 74.7344 151.913 73.7573 151.62L73.915 151.095C72.9407 150.804 71.9764 150.489 71.0232 150.152L70.8403 150.669C69.8733 150.326 68.9175 149.961 67.9733 149.573L68.1823 149.066C67.2423 148.68 66.3132 148.272 65.3972 147.841L65.1639 148.339C64.2361 147.903 63.321 147.445 62.419 146.966L62.6764 146.481C61.7798 146.004 60.8964 145.507 60.0268 144.989L59.7443 145.458C58.8646 144.934 57.9985 144.389 57.1476 143.824L57.4523 143.367C56.607 142.805 55.7767 142.223 54.9615 141.621L54.6346 142.063C53.8107 141.455 53.0023 140.827 52.2102 140.181L52.5581 139.756C51.7721 139.114 51.0022 138.453 50.2491 137.774L49.881 138.183C49.1207 137.498 48.3774 136.794 47.6518 136.073L48.0391 135.684C47.3198 134.969 46.6185 134.237 45.9348 133.488L45.5285 133.858L45.5275 133.858C44.8378 133.102 44.167 132.329 43.5147 131.54L43.9392 131.191C43.2932 130.409 42.6656 129.612 42.0579 128.8L41.6172 129.128C41.0049 128.309 40.4123 127.475 39.8399 126.626L40.2957 126.32C39.7293 125.48 39.183 124.625 38.6574 123.757L38.1874 124.041C37.6583 123.166 37.1502 122.278 36.6635 121.377L37.1477 121.117C36.6666 120.226 36.2064 119.321 35.7684 118.405L35.2721 118.641C34.8317 117.719 34.4137 116.785 34.0178 115.84L34.5243 115.629C34.1335 114.696 33.7649 113.751 33.4192 112.795L32.9025 112.981C32.5553 112.021 32.2316 111.051 31.9308 110.071L32.4549 109.91C32.1583 108.943 31.8849 107.966 31.635 106.981L31.1028 107.115C30.8522 106.126 30.6247 105.129 30.422 104.122L30.9615 104.015C30.762 103.024 30.5857 102.026 30.4342 101.019L29.8913 101.1C29.7396 100.092 29.6115 99.0769 29.5086 98.0546L30.0558 98.0008C29.9547 96.9965 29.8776 95.9853 29.8252 94.9678L29.2767 94.9953C29.2243 93.9786 29.1953 92.9558 29.1924 91.9274L29.7423 91.9273C29.7408 91.42 29.7453 90.9109 29.7561 90.4009C29.7664 89.916 29.7822 89.4324 29.8036 88.9504L29.2561 88.9261C29.2993 87.9484 29.3653 86.9768 29.4528 86.0116L29.9987 86.0613C30.0862 85.0958 30.1954 84.1367 30.3265 83.1848L29.7821 83.1098C29.9155 82.1405 30.0725 81.1787 30.2497 80.2245L30.7887 80.3248C30.9656 79.3719 31.1643 78.4269 31.3841 77.4902L30.8506 77.3646C31.0739 76.413 31.3175 75.4697 31.5836 74.5357L32.1128 74.6866C32.3781 73.7556 32.6644 72.8333 32.9715 71.9211L32.4526 71.7459C32.7641 70.8209 33.0938 69.9047 33.4467 68.9998L33.9592 69.2002C34.3108 68.2985 34.6828 67.4064 35.0748 66.526L34.5745 66.3034C34.9716 65.4116 35.3873 64.5303 35.8243 63.6614L36.3152 63.9092C36.7496 63.0453 37.2035 62.1926 37.6764 61.3526L37.1996 61.0836C37.6782 60.2336 38.1743 59.3952 38.6908 58.5707L39.1564 58.8629C39.6694 58.0439 40.2005 57.2375 40.7501 56.445L40.2996 56.1327C40.8552 55.3314 41.4286 54.5435 42.02 53.7702L42.4564 54.1038C43.0433 53.3365 43.6473 52.5831 44.2685 51.8449L43.8491 51.4921C44.4766 50.7464 45.1199 50.0145 45.7808 49.2992L46.1851 49.6722C46.8405 48.963 47.5122 48.2692 48.1995 47.5914L47.8141 47.2013C48.5079 46.5173 49.2164 45.8483 49.9411 45.1972L50.3085 45.6065C51.0266 44.9614 51.7596 44.3324 52.5072 43.7211L52.1607 43.2966C52.9144 42.6804 53.6818 42.0805 54.464 41.4994L54.7917 41.9401C55.5663 41.3646 56.3552 40.8067 57.1568 40.2673L56.851 39.8124C57.658 39.2693 58.4778 38.7441 59.3107 38.2383L59.5967 38.7074C60.4211 38.2068 61.2578 37.7248 62.1065 37.2623L61.8442 36.781C62.6984 36.3155 63.5641 35.8685 64.4416 35.4423L64.6821 35.9358C65.5491 35.5148 66.427 35.1129 67.3157 34.7317L67.0998 34.229C67.993 33.8458 68.8962 33.4818 69.81 33.1398L70.0033 33.6537C70.4502 33.4865 70.8992 33.3228 71.3508 33.1656L71.3518 33.1666L72.169 32.9076L72.1635 32.8899C72.1657 32.8891 72.1682 32.8888 72.1704 32.8881L71.9968 32.3667L71.9959 32.3657C72.5374 32.1858 73.0824 32.0139 73.6303 31.8485L73.7891 32.3754C73.7914 32.3747 73.7936 32.3734 73.796 32.3727L73.8015 32.3894L74.6177 32.1313L74.6167 32.1303C75.1093 31.9891 75.6048 31.8554 76.1022 31.7262L75.964 31.1958C76.973 30.9337 77.9912 30.6943 79.0189 30.4821L79.1296 31.0207C80.1404 30.8121 81.1601 30.628 82.1879 30.4693L82.1046 29.9274C83.1334 29.7686 84.1702 29.6354 85.2144 29.5275L85.2712 30.0728C86.297 29.9669 87.3301 29.886 88.3698 29.8309L88.3404 29.2823C89.3789 29.2273 90.4239 29.1991 91.4748 29.1955L91.4769 29.7435C91.9936 29.7418 92.5121 29.746 93.0316 29.757C93.52 29.7674 94.0074 29.7831 94.4928 29.8047L94.5162 29.2562C95.5028 29.3 96.4832 29.3666 97.457 29.4554L97.4082 30.0024C98.3828 30.0912 99.3505 30.2032 100.311 30.3365L100.386 29.7911C101.363 29.9267 102.333 30.085 103.296 30.2651L103.195 30.8061C104.156 30.986 105.11 31.1883 106.054 31.4118L106.18 30.8763C107.139 31.1034 108.09 31.3529 109.032 31.6235L108.881 32.1517C109.82 32.4215 110.749 32.7132 111.669 33.0255L111.845 32.5047C112.778 32.8216 113.701 33.1598 114.613 33.5188L114.614 33.5188L114.412 34.0303C114.862 34.2071 115.309 34.3885 115.753 34.5755L115.753 34.5765L116.452 34.8922L116.457 34.8786C116.46 34.8796 116.462 34.8807 116.464 34.8817L116.685 34.3775L116.685 34.3765C117.154 34.581 117.62 34.7923 118.083 35.0079L117.853 35.507C117.854 35.5077 117.856 35.5083 117.857 35.5091L117.852 35.5226L118.553 35.8383C118.993 36.0501 119.43 36.2667 119.864 36.4884L120.113 36.0004C121 36.4531 121.875 36.9247 122.736 37.4177L122.463 37.8955C123.319 38.3856 124.163 38.895 124.993 39.4241L125.287 38.9615C126.126 39.4966 126.951 40.0515 127.762 40.6248L127.447 41.0723C128.252 41.6413 129.042 42.2292 129.818 42.835L130.155 42.4016C130.939 43.0138 131.708 43.6448 132.461 44.2928L132.104 44.7091C132.851 45.3518 133.583 46.0118 134.299 46.6888L134.674 46.2904C135.397 46.9738 136.103 47.6738 136.791 48.3905L136.396 48.7709C137.079 49.4811 137.745 50.2076 138.394 50.9495L138.807 50.5871C139.461 51.3353 140.095 52.1002 140.714 52.8791L140.285 53.2207C140.897 53.992 141.491 54.7781 142.067 55.5784L142.511 55.2576C143.091 56.064 143.652 56.8844 144.194 57.7187L143.734 58.0186C144.27 58.8443 144.787 59.6835 145.284 60.5355L145.757 60.2584C146.257 61.1157 146.737 61.9861 147.197 62.8686L146.712 63.123C147.167 63.9953 147.601 64.8796 148.015 65.7753L148.512 65.5446C148.928 66.4456 149.322 67.3581 149.696 68.2813L149.189 68.4883C149.557 69.3992 149.905 70.3208 150.231 71.2523L150.748 71.0718C151.075 72.0077 151.382 72.9531 151.665 73.9083L151.14 74.0642C151.42 75.0062 151.677 75.9574 151.913 76.9172L152.445 76.7869C152.681 77.749 152.893 78.7199 153.083 79.6986L152.547 79.8034C152.735 80.7666 152.9 81.7376 153.043 82.7159L153.586 82.6366Z" stroke="black" stroke-width="1.1" stroke-dasharray="3 3"/>
</mask>
<g mask="url(#mask0_45_233)">
<rect x="76.7859" y="27.3262" width="37.3275" height="8.39868" fill="#D8A95B"/>
</g>
<mask id="mask1_45_233" style="mask-type:alpha" maskUnits="userSpaceOnUse" x="29" y="29" width="126" height="126">
<circle cx="91.7159" cy="91.7168" r="61.9735" transform="rotate(1.21657 91.7159 91.7168)" stroke="black" stroke-width="1.1" stroke-dasharray="3 3"/>
</mask>
<g mask="url(#mask1_45_233)">
<path d="M59.5217 41.3245L32.9258 83.318L26.8601 80.5184L31.0594 64.6542L54.3891 37.5918L55.3223 42.7243L59.5217 41.3245Z" fill="#D8A95B"/>
</g>
<mask id="mask2_45_233" style="mask-type:alpha" maskUnits="userSpaceOnUse" x="29" y="29" width="126" height="126">
<circle cx="91.7159" cy="91.7168" r="61.9735" transform="rotate(1.21657 91.7159 91.7168)" stroke="black" stroke-width="1.1" stroke-dasharray="3 3"/>
</mask>
<g mask="url(#mask2_45_233)">
<path d="M32.9253 107.114L30.1257 109.914C31.8366 114.891 35.2583 125.031 35.2583 125.778C35.2583 126.525 43.0348 137.598 46.9231 143.042L71.186 153.307L72.1192 149.108L32.9253 107.114Z" fill="#D8A95B"/>
</g>
<mask id="mask3_45_233" style="mask-type:alpha" maskUnits="userSpaceOnUse" x="29" y="29" width="126" height="126">
<circle cx="91.7159" cy="91.7168" r="61.9735" transform="rotate(1.21657 91.7159 91.7168)" stroke="black" stroke-width="1.1" stroke-dasharray="3 3"/>
</mask>
<g mask="url(#mask3_45_233)">
<path d="M92.1833 151.907V157.972L103.382 156.106L123.445 150.04L141.176 135.576L150.041 122.978L156.573 99.1817V82.3843L152.374 65.1204C148.952 59.6768 141.736 48.5096 140.242 47.3898C138.749 46.27 135.265 46.9232 133.71 47.3898L135.577 53.9221L147.241 73.519C148.175 81.6067 149.854 99.7416 149.108 107.58C148.175 117.379 136.043 130.443 135.577 132.776C135.203 134.643 119.557 143.819 111.78 148.174L92.1833 151.907Z" fill="#D8A95B"/>
</g>
<path d="M160.638 83.9247C160.983 83.8857 161.295 84.1342 161.331 84.4796C163.02 100.728 158.972 117.064 149.877 130.65C140.666 144.411 126.874 154.46 110.952 159.011C95.0303 163.562 78.0107 162.32 62.9182 155.507C48.0169 148.779 35.9472 137.051 28.7941 122.364C28.642 122.051 28.7753 121.676 29.0889 121.527V121.527C29.4025 121.377 29.7775 121.511 29.9297 121.823C36.9549 136.242 48.8056 147.756 63.4357 154.361C78.257 161.052 94.9708 162.271 110.606 157.802C126.242 153.333 139.786 143.464 148.832 129.951C157.762 116.612 161.737 100.574 160.081 84.6209C160.045 84.2755 160.293 83.9638 160.638 83.9247V83.9247Z" fill="#D8A95B"/>
<path d="M125.779 31.2964C125.949 30.9939 126.333 30.8867 126.634 31.06C137.061 37.0625 145.766 45.6521 151.906 55.9992C152.083 56.2978 151.981 56.683 151.681 56.8575V56.8575C151.381 57.0321 150.996 56.9299 150.819 56.6313C144.791 46.4777 136.249 38.0481 126.016 32.1555C125.715 31.9822 125.608 31.5989 125.779 31.2964V31.2964Z" fill="#D8A95B"/>
<path d="M22.3736 93.2505C22.0264 93.2581 21.7385 92.9828 21.7339 92.6356C21.6076 83.014 23.4667 73.4674 27.1976 64.5928C31.0097 55.525 36.6904 47.3626 43.8693 40.6379C51.0482 33.9132 59.5639 28.7772 68.8612 25.565C77.9603 22.4212 87.6079 21.1891 97.2007 21.9431C97.5469 21.9703 97.8029 22.2756 97.7725 22.6215V22.6215C97.7422 22.9675 97.4372 23.2231 97.0909 23.1959C87.6742 22.4574 78.2039 23.6676 69.2719 26.7536C60.1417 29.9081 51.7789 34.9518 44.729 41.5557C37.6792 48.1596 32.1005 56.1753 28.3569 65.0802C24.6945 73.7918 22.8688 83.1629 22.9913 92.6078C22.9958 92.955 22.7208 93.2428 22.3736 93.2505V93.2505Z" fill="#D8A95B"/>
<path d="M149.629 89.191C149.919 89.1784 150.165 89.4033 150.175 89.6934C150.52 99.6708 148.306 109.574 143.739 118.458C139.092 127.498 132.17 135.171 123.654 140.721C115.139 146.27 105.324 149.505 95.1771 150.107C85.2054 150.697 75.2516 148.724 66.2631 144.38C66.0018 144.254 65.8952 143.938 66.0238 143.678V143.678C66.1525 143.418 66.4677 143.312 66.729 143.438C75.5537 147.701 85.3256 149.637 95.115 149.057C105.079 148.467 114.718 145.29 123.08 139.84C131.443 134.39 138.241 126.855 142.805 117.977C147.288 109.256 149.462 99.5341 149.125 89.7392C149.115 89.4491 149.339 89.2037 149.629 89.191V89.191Z" fill="#D8A95B"/>
<path d="M51.1397 133.112C50.9366 133.32 50.6036 133.323 50.3982 133.118C44.7209 127.452 40.2683 120.677 37.3189 113.214C34.3696 105.751 32.9881 97.7632 33.2582 89.7468C33.268 89.4568 33.5133 89.2317 33.8033 89.2441V89.2441C34.0933 89.2564 34.318 89.5016 34.3083 89.7917C34.0445 97.6608 35.4012 105.502 38.2964 112.828C41.1916 120.154 45.5619 126.805 51.134 132.367C51.3394 132.572 51.3429 132.905 51.1397 133.112V133.112Z" fill="#D8A95B"/>
<path d="M40.8092 63.9944C40.5543 63.8556 40.46 63.5363 40.6011 63.2827C44.7348 55.8513 50.4403 49.4087 57.3218 44.4057C64.345 39.2997 72.4169 35.8214 80.9517 34.2233C89.4865 32.6251 98.27 32.9471 106.665 35.1661C114.89 37.3402 122.54 41.2819 129.083 46.7141C129.306 46.8995 129.334 47.2313 129.146 47.453V47.453C128.959 47.6746 128.627 47.7021 128.404 47.5167C121.981 42.1852 114.471 38.3164 106.396 36.1822C98.1523 34.0031 89.5266 33.6869 81.1451 35.2563C72.7637 36.8258 64.8368 40.2416 57.9398 45.2558C51.1845 50.167 45.5832 56.491 41.5242 63.7853C41.383 64.0389 41.0641 64.1332 40.8092 63.9944V63.9944Z" fill="#D8A95B"/>
<path d="M140.44 60.3105C140.683 60.1533 141.009 60.2234 141.164 60.4688C142.063 61.8912 142.9 63.3518 143.673 64.8464C143.806 65.1042 143.702 65.4205 143.443 65.5515V65.5515C143.184 65.6825 142.868 65.5786 142.735 65.3208C141.979 63.8588 141.16 62.4299 140.281 61.0382C140.126 60.7929 140.196 60.4678 140.44 60.3105V60.3105Z" fill="#D8A95B"/>
<circle cx="23.5945" cy="108.513" r="2.79956" fill="#D8A95B"/>
<circle cx="157.507" cy="68.8535" r="2.33297" fill="#D8A95B"/>
<circle cx="112.713" cy="24.9935" r="1.39978" fill="#D8A95B"/>
</svg>
