<svg width="50" height="50" viewBox="0 0 50 50" fill="none" xmlns="http://www.w3.org/2000/svg">
<mask id="mask0_7468_261" style="mask-type:luminance" maskUnits="userSpaceOnUse" x="0" y="0" width="50" height="50">
<path d="M50 0H0V50H50V0Z" fill="white"/>
</mask>
<g mask="url(#mask0_7468_261)">
<path d="M13.0886 36.9106C20.0457 43.8679 28.2782 48.5834 35.679 49.8521C36.086 49.9544 36.5044 50.0038 36.924 49.9993C39.1837 49.9993 42.4994 48.8026 46.9905 46.3731C47.563 46.0729 48.07 45.6618 48.4818 45.1636C48.8939 44.6654 49.2024 44.0901 49.3897 43.4714L49.755 42.3178C50.0634 41.3764 50.0822 40.3643 49.8092 39.4121C49.536 38.4599 48.9837 37.6116 48.2232 36.9768L42.6125 32.1974C41.7487 31.4556 40.6575 31.0311 39.5197 30.9938C38.3817 30.9564 37.265 31.3088 36.3545 31.9923L33.6867 33.9789C33.0373 34.4739 32.2459 34.7461 31.4295 34.7553C30.6132 34.7644 29.8157 34.5101 29.1554 34.0299C29.1462 34.0234 29.1369 34.0171 29.1274 34.0111C23.8172 30.6726 19.3264 26.1819 15.9878 20.8719C15.9818 20.8623 15.9756 20.8529 15.969 20.8438C15.4888 20.1836 15.2344 19.3861 15.2436 18.5698C15.2527 17.7534 15.525 16.9618 16.0199 16.3125L18.0069 13.6447C18.6905 12.7341 19.0427 11.6175 19.0055 10.4796C18.9682 9.3416 18.5435 8.25047 17.8019 7.38663L13.0225 1.77599C12.3877 1.01553 11.5394 0.463033 10.5872 0.189958C9.63497 -0.083115 8.62275 -0.0642013 7.6814 0.244254L6.5279 0.609585C5.90915 0.796792 5.3339 1.10534 4.83567 1.51723C4.33745 1.92912 3.92624 2.4361 3.62604 3.0086C0.70397 8.41037 -0.434312 12.1112 0.147133 14.3201C1.41569 21.7209 6.13132 29.9534 13.0886 36.9106ZM37.0545 32.9326C37.7525 32.4084 38.6087 32.1383 39.4812 32.1668C40.3537 32.1954 41.1904 32.5209 41.8527 33.0896L47.4634 37.8689C48.0464 38.3556 48.47 39.0059 48.6794 39.7361C48.8887 40.4661 48.8742 41.2421 48.6379 41.9639L48.2724 43.1174C48.1563 43.4924 47.9849 43.8479 47.7637 44.1721C43.477 41.1091 39.4979 37.6374 35.8819 33.8058L37.0545 32.9326ZM6.8818 1.72677L8.03532 1.36134C8.42054 1.23841 8.82237 1.17547 9.22672 1.17472C9.78077 1.17573 10.3279 1.29812 10.8295 1.53328C11.3312 1.76844 11.7752 2.11065 12.1304 2.53585L16.9097 8.1465C17.4784 8.80885 17.8039 9.64548 17.8324 10.518C17.8609 11.3905 17.5909 12.2466 17.0667 12.9447L16.1935 14.1174C12.3617 10.5014 8.88982 6.52215 5.82662 2.23557C6.15097 2.01424 6.50665 1.84274 6.8818 1.72677ZM4.6567 3.56622C4.75144 3.39055 4.85847 3.2218 4.97702 3.06125C8.08532 7.39195 11.6057 11.4115 15.4887 15.0637L15.08 15.6126C14.4364 16.457 14.0814 17.4861 14.0676 18.5478C14.0538 19.6094 14.3819 20.6473 15.0035 21.5081C18.4325 26.9574 23.0419 31.5668 28.491 34.9958C29.3519 35.6173 30.3899 35.9453 31.4515 35.9316C32.5132 35.9178 33.5422 35.5628 34.3865 34.9191L34.9355 34.5104C38.5875 38.3934 42.6069 41.9138 46.9375 45.0221C46.7769 45.1408 46.6082 45.2478 46.4325 45.3424C41.3567 48.0883 37.8322 49.2229 35.9574 48.7136C35.9392 48.7086 35.9207 48.7046 35.9022 48.7014C20.98 46.1599 3.83932 29.0191 1.29791 14.0966C1.29481 14.078 1.29076 14.0596 1.2858 14.0414C0.776626 12.1665 1.9109 8.64268 4.6567 3.56622ZM28.7569 22.6791C28.827 22.7543 28.9157 22.8096 29.0142 22.8396C29.1125 22.8696 29.217 22.8731 29.3172 22.8499L34.8882 21.5598C35.1262 21.6504 35.3657 21.7326 35.6024 21.8048C38.4274 22.6604 41.4764 22.3604 44.0804 20.9704C46.6844 19.5804 48.6305 17.2141 49.4915 14.3908C50.3527 11.5674 50.0583 8.51777 48.6732 5.91117C47.2882 3.30458 44.9255 1.35402 42.1039 0.487613C39.8567 -0.197697 37.4504 -0.155231 35.2287 0.608943C33.0072 1.37312 31.0839 2.8199 29.7339 4.74258C28.3837 6.66527 27.6759 8.96547 27.7114 11.3145C27.7469 13.6636 28.524 15.9414 29.9315 17.8224L28.6245 22.1078C28.5945 22.2063 28.5909 22.3109 28.6142 22.4111C28.6374 22.5114 28.6865 22.6038 28.7569 22.6791ZM29.3155 8.23732C29.8909 6.35093 31.0125 4.6775 32.5389 3.42865C34.0654 2.1798 35.9277 1.41163 37.8907 1.22126C39.8537 1.03089 41.829 1.42688 43.5669 2.35915C45.3047 3.29144 46.7272 4.71813 47.6542 6.45882C48.5814 8.1995 48.9714 10.176 48.775 12.1384C48.5788 14.1008 47.805 15.9609 46.5517 17.4834C45.2982 19.0061 43.6214 20.1228 41.7334 20.6924C39.8452 21.2621 37.8305 21.2591 35.9442 20.6838C35.6812 20.6034 35.4137 20.5093 35.1492 20.4038C35.0382 20.3596 34.9164 20.3503 34.8 20.3773L30.0415 21.4793L31.1405 17.8758C31.1682 17.7851 31.1734 17.6891 31.1559 17.5961C31.1382 17.5029 31.0984 17.4154 31.0395 17.3411C30.0375 16.0761 29.3574 14.587 29.057 13.0014C28.7569 11.4158 28.8455 9.7811 29.3155 8.23732ZM33.0057 11.2208C33.0057 11.0654 33.0675 10.9164 33.1774 10.8065C33.2872 10.6966 33.4362 10.6349 33.5917 10.6349H41.8619C42.0173 10.6349 42.1664 10.6966 42.2762 10.8065C42.386 10.9164 42.4479 11.0654 42.4479 11.2208C42.4479 11.3762 42.386 11.5253 42.2762 11.6351C42.1664 11.745 42.0173 11.8068 41.8619 11.8068H33.5917C33.4362 11.8068 33.2872 11.745 33.1774 11.6351C33.0675 11.5253 33.0057 11.3762 33.0057 11.2208ZM33.0057 7.69289C33.0057 7.53749 33.0675 7.38845 33.1774 7.27857C33.2872 7.16869 33.4362 7.10695 33.5917 7.10695H45.1249C45.2802 7.10695 45.4294 7.16869 45.5392 7.27857C45.649 7.38845 45.7109 7.53749 45.7109 7.69289C45.7109 7.84829 45.649 7.99732 45.5392 8.1072C45.4294 8.21708 45.2802 8.27882 45.1249 8.27882H33.5917C33.5147 8.27882 33.4385 8.26365 33.3674 8.2342C33.2962 8.20473 33.2317 8.16154 33.1772 8.1071C33.1229 8.05267 33.0797 7.98804 33.0502 7.91692C33.0209 7.84579 33.0057 7.76985 33.0057 7.69289ZM33.0057 14.5629C33.0057 14.4075 33.0675 14.2585 33.1774 14.1486C33.2872 14.0387 33.4362 13.977 33.5917 13.977H40.5119C40.6674 13.977 40.8164 14.0387 40.9262 14.1486C41.036 14.2585 41.0979 14.4075 41.0979 14.5629C41.0979 14.7183 41.036 14.8673 40.9262 14.9772C40.8164 15.0871 40.6674 15.1489 40.5119 15.1489H33.5917C33.5147 15.1489 33.4385 15.1337 33.3674 15.1042C33.2962 15.0748 33.2317 15.0316 33.1772 14.9771C33.1229 14.9227 33.0797 14.8581 33.0502 14.7869C33.0209 14.7158 33.0057 14.6399 33.0057 14.5629Z" fill="black"/>
</g>
</svg>
