<svg width="92" height="88" viewBox="0 0 92 88" fill="none" xmlns="http://www.w3.org/2000/svg">
<path d="M17.3934 76.1078C17.3643 76.0818 17.3343 76.0569 17.3032 76.0332C16.3735 75.2616 15.4439 74.4342 14.5886 73.579C14.0452 73.0414 13.1704 73.0414 12.6271 73.579C12.0832 74.1235 12.0832 75.0053 12.6271 75.5498C13.5567 76.4794 14.4864 77.344 15.5276 78.1807C16.1 78.696 16.9818 78.6495 17.497 78.0771C18.012 77.5046 17.9658 76.6231 17.3934 76.1078Z" fill="#D8A95B"/>
<path d="M2.79952 34.7674C2.07253 34.5133 1.27722 34.897 1.0232 35.624C0.985545 35.7319 0.961142 35.8441 0.950916 35.9578C0.672022 37.2314 0.458204 38.5236 0.300164 39.8158C0.200691 40.5716 0.726406 41.2672 1.48081 41.3776H1.65745C2.36328 41.3781 2.95802 40.8512 3.04262 40.1505C3.19136 38.9419 3.39589 37.7241 3.65619 36.5434C3.91021 35.8165 3.5265 35.0211 2.79952 34.7674Z" fill="#D8A95B"/>
<path d="M10.461 68.7171C9.74517 67.7317 9.06652 66.7091 8.44366 65.6679C8.04996 65.006 7.19422 64.7884 6.53231 65.1821C6.53115 65.1828 6.52975 65.1835 6.52859 65.1845C5.86668 65.5782 5.64914 66.4339 6.04285 67.0958C6.04355 67.097 6.04424 67.0984 6.04517 67.0995C6.71452 68.2151 7.43964 69.3121 8.21125 70.3626C8.687 70.9683 9.56365 71.0733 10.1693 70.5976C10.7455 70.1448 10.8731 69.3232 10.461 68.7171Z" fill="#D8A95B"/>
<path d="M5.59836 59.9245C5.15213 58.7996 4.74308 57.6375 4.39911 56.4662C4.1846 55.7266 3.4109 55.3009 2.67137 55.5154C2.65835 55.5191 2.64557 55.5231 2.63279 55.5272C1.90092 55.7508 1.48607 56.5227 1.70314 57.2564C2.075 58.5021 2.50264 59.7478 2.98605 60.975C3.2761 61.6964 4.09605 62.0459 4.81746 61.7559C5.53886 61.4658 5.88841 60.6459 5.59836 59.9245Z" fill="#D8A95B"/>
<path d="M6.43098 25.206C5.74304 24.8595 4.90427 25.1363 4.55774 25.8243C3.97206 26.9863 3.43287 28.1856 2.95875 29.4034C2.67916 30.1169 3.02801 30.9224 3.73965 31.2069C4.45571 31.4904 5.26613 31.14 5.54967 30.4239C5.5506 30.4216 5.55153 30.419 5.55246 30.4167C5.99869 29.2825 6.48211 28.1577 7.04919 27.0793C7.39572 26.3913 7.11892 25.5528 6.43098 25.206Z" fill="#D8A95B"/>
<path d="M3.08839 50.221C3.08816 50.2198 3.08816 50.2184 3.08792 50.2173C2.93918 49.0087 2.83692 47.7816 2.79044 46.573C2.76231 45.8028 2.11505 45.2016 1.34484 45.2297C0.574624 45.2578 -0.0266249 45.9051 0.00149693 46.6753C0.00149693 47.9768 0.15024 49.2876 0.317577 50.5798C0.412865 51.2557 0.983436 51.763 1.66556 51.7791H1.87938C2.64355 51.6826 3.18484 50.9849 3.08839 50.221Z" fill="#D8A95B"/>
<path d="M40.0838 3.70254C40.0094 2.93233 39.3247 2.3685 38.5545 2.44287C37.2623 2.57302 35.9608 2.75895 34.6779 3.00995C33.9077 3.08177 33.3417 3.76436 33.4136 4.53457C33.4854 5.30478 34.168 5.87071 34.9382 5.79889L34.9289 5.76171H35.1985C36.3977 5.52929 37.6156 5.35266 38.8241 5.23181C39.5943 5.15743 40.1581 4.47275 40.0838 3.70254Z" fill="#D8A95B"/>
<path d="M12.4858 16.7686C11.9057 16.2552 11.0191 16.3094 10.5057 16.8895C9.6504 17.8656 8.83231 18.8975 8.07 19.9573C7.61819 20.5809 7.75741 21.4529 8.3812 21.9047C8.61803 22.0762 8.9025 22.169 9.19487 22.1699V22.1885C9.64366 22.1901 10.0657 21.9756 10.329 21.6121C11.0449 20.6267 11.8072 19.6598 12.6067 18.7488C13.1201 18.1687 13.0659 17.2823 12.4858 16.7686Z" fill="#D8A95B"/>
<path d="M49.2731 2.67576C47.9902 2.48054 46.6794 2.34109 45.3779 2.26672C44.6077 2.22047 43.946 2.80731 43.8998 3.57752C43.8535 4.34773 44.4404 5.00941 45.2106 5.05566C46.4377 5.14862 47.6555 5.27877 48.8548 5.4647H49.0686C49.8388 5.52118 50.5089 4.9427 50.5653 4.17249C50.6218 3.40251 50.0433 2.73224 49.2731 2.67576Z" fill="#D8A95B"/>
<path d="M20.4048 10.1241C19.9685 9.5317 19.1472 9.37993 18.528 9.77759C17.4589 10.512 16.4084 11.3115 15.4044 12.1389C14.8113 12.6318 14.7302 13.512 15.2231 14.1051C15.7161 14.6982 16.5962 14.7793 17.1893 14.2864C18.119 13.5055 19.1044 12.7618 20.1084 12.0738C20.7287 11.6174 20.8612 10.7444 20.4048 10.1241Z" fill="#D8A95B"/>
<path d="M25.0881 8.99641C25.0834 8.99641 25.079 8.99548 25.0744 8.99548C25.0695 8.99548 25.0648 8.99641 25.0602 8.99641H25.0881Z" fill="#D8A95B"/>
<path d="M30.005 5.73043C29.8011 4.98788 29.0337 4.55094 28.2909 4.755C28.2256 4.7729 28.1617 4.79567 28.0997 4.82286C26.8818 5.26909 25.664 5.75251 24.4926 6.33819C23.7942 6.6631 23.4916 7.49258 23.8165 8.19074C24.0443 8.68043 24.5347 8.99326 25.0739 8.99605C25.2752 8.99209 25.4734 8.94538 25.6547 8.85753C26.7517 8.33693 27.8858 7.86281 29.0293 7.44447C29.7723 7.24041 30.209 6.47299 30.005 5.73043Z" fill="#D8A95B"/>
<path d="M46.859 86.3942C46.8102 85.624 46.1464 85.0392 45.3762 85.0881C44.1584 85.181 42.9312 85.2089 41.7134 85.1717C40.9432 85.1513 40.3022 85.7588 40.2818 86.529C40.2613 87.2992 40.8688 87.9402 41.639 87.9607H42.8197C43.7493 87.9607 44.679 87.9607 45.5528 87.877C46.3231 87.8284 46.9078 87.1644 46.859 86.3942Z" fill="#D8A95B"/>
<path d="M83.3604 54.0903C82.6134 53.9005 81.8537 54.352 81.6638 55.099C81.3663 56.2797 81.0037 57.451 80.5947 58.5945C80.3523 59.3126 80.7279 60.0931 81.4407 60.3515C82.1656 60.6116 82.9641 60.2346 83.2242 59.5097C83.2247 59.5083 83.2251 59.5069 83.2256 59.5055C83.6625 58.2784 84.0437 57.0234 84.3691 55.787C84.5592 55.04 84.1074 54.2805 83.3604 54.0903Z" fill="#D8A95B"/>
<path d="M85.139 38.1232C84.9251 36.8403 84.6555 35.5481 84.3302 34.293C84.1075 33.5558 83.3292 33.1387 82.592 33.3615C81.8931 33.5726 81.4755 34.287 81.6342 34.9996C81.941 36.1709 82.192 37.3795 82.3965 38.5787C82.5167 39.2357 83.0858 39.7152 83.7538 39.7222H83.9862C84.746 39.5988 85.2619 38.8832 85.139 38.1232Z" fill="#D8A95B"/>
<path d="M91.0684 22.1166C91.0029 21.9741 90.9132 21.8442 90.8033 21.7327L88.3397 19.1668C87.9869 18.8145 87.4684 18.6857 86.9917 18.8322L82.548 20.1801L77.342 14.658L89.0276 8.15052C89.7086 7.837 90.0063 7.03077 89.6926 6.35003C89.627 6.20756 89.5373 6.07765 89.4274 5.96609L86.1457 2.68444C85.788 2.3407 85.2712 2.21938 84.7977 2.36836L69.9885 6.84925L65.0056 1.55956C63.7357 0.091187 61.6684 -0.399434 59.8739 0.341727H59.7902C58.4374 0.898585 57.3629 1.97302 56.8061 3.32589C56.6657 3.67916 56.566 4.04707 56.5086 4.42287L55.9415 4.22765C55.2073 3.99152 54.4206 4.39522 54.1845 5.12941C53.9484 5.86359 54.3521 6.65031 55.0862 6.88644C55.8021 7.11885 56.5179 7.37915 57.2337 7.64875C57.4492 7.98575 57.7018 8.29764 57.9867 8.57839L63.2392 13.5613L61.7332 18.5349C47.0034 8.02781 26.5449 11.451 16.0378 26.1808C5.53074 40.9106 8.95393 61.3688 23.6837 71.8759C38.4135 82.383 58.872 78.9598 69.3791 64.23C77.758 52.4837 77.4656 36.6386 68.6591 25.2095L71.039 20.9146L76.5611 26.1206L75.2317 30.5178C75.0715 31.001 75.1975 31.5332 75.5571 31.8937C75.5571 31.8937 78.2809 34.5897 78.346 34.6826C78.99 35.0559 79.8148 34.8365 80.1883 34.1925C80.1941 34.1825 80.1999 34.1723 80.2053 34.162L83.8402 27.4965L90.4035 23.9173C91.0845 23.6036 91.3822 22.7973 91.0684 22.1166ZM21.6562 23.9543C27.2608 18.3522 34.8627 15.2084 42.787 15.2156C43.4069 15.2156 44.0265 15.2342 44.6463 15.2714C49.9174 20.1334 48.3649 24.5678 44.8322 28.5653C42.7475 30.7763 40.511 32.8389 38.1388 34.7382C34.7084 37.6573 31.5104 40.3811 30.3019 43.105C28.8702 46.3402 29.9207 49.2686 35.7031 51.8251C38.5943 53.108 40.1654 54.1027 40.779 54.8557C40.788 54.8667 40.7969 54.8743 40.8059 54.8811C40.7869 54.8869 40.7676 54.8931 40.7418 54.9022C39.3417 55.4354 37.8515 55.691 36.3539 55.6552C29.3443 55.9527 24.3521 51.4718 20.4755 48.0042C17.6866 45.5221 15.3717 43.4583 12.964 43.4397C13.3618 36.0957 16.4573 29.1568 21.6562 23.9543ZM72.7774 45.1316H72.7867C72.7825 58.0886 64.4531 69.5758 52.1393 73.6067C51.7934 71.4278 52.1964 69.196 53.2827 67.2758C54.7558 64.9101 56.6457 62.8314 58.8606 61.1401C67.4412 53.9819 67.9247 49.9844 68.2965 46.9073C68.5289 44.9643 68.7056 43.514 72.545 41.4037C72.6991 42.6404 72.7767 43.8854 72.7774 45.1316ZM71.0483 35.0729C71.4638 36.2433 71.8052 37.4388 72.0709 38.652C66.2234 41.6269 65.9631 43.7465 65.6098 46.6377C65.2938 49.2407 64.8847 52.6432 57.1315 59.1135C54.6481 61.0135 52.5367 63.355 50.9028 66.0208C49.4784 68.5387 48.9847 71.4773 49.5084 74.3225C33.3816 78.009 17.3198 67.9242 13.6333 51.7977C13.2117 49.9532 12.9658 48.073 12.8989 46.1821C14.377 46.1821 16.2921 47.9392 18.6441 50.0309C22.9019 53.8331 28.3496 58.6859 36.4654 58.3977C38.3777 58.4307 40.2763 58.07 42.0433 57.3379C42.7882 57.0086 43.352 56.3701 43.5865 55.5901C43.7845 54.7202 43.5333 53.8089 42.9172 53.1638C42.0433 52.0947 40.1282 50.8304 36.8373 49.3615C32.9049 47.6231 32.0496 45.9311 32.8212 44.202C33.7509 42.0266 36.7443 39.5537 39.9237 36.7648C42.4012 34.7626 44.7342 32.5881 46.9054 30.2573C50.7913 25.8322 52.79 21.0073 48.839 15.7269C53.23 16.6245 57.3613 18.5028 60.9244 21.2211L58.7862 28.2771C58.6284 28.7606 58.7539 29.2916 59.1116 29.653C59.1116 29.653 62.5792 33.0927 62.6908 33.1578C63.3348 33.531 64.1596 33.3116 64.5331 32.6676C64.5389 32.6576 64.5445 32.6474 64.55 32.6372L67.2553 27.7472C68.8522 30.0021 70.1286 32.4675 71.0483 35.0729ZM83.5148 24.6887L82.3156 25.2837C82.0471 25.4168 81.831 25.636 81.702 25.9065L81.107 27.1151L78.7922 31.2985L78.1136 30.5548L79.4616 26.1018C79.6187 25.58 79.4462 25.0152 79.0246 24.6701L71.6897 17.7628C71.1587 17.2411 70.3053 17.2487 69.7835 17.7798C69.7709 17.7926 69.7589 17.8054 69.7468 17.8186C69.6538 17.9209 63.0533 29.8111 63.0533 29.8111L61.6124 28.3701L66.1118 13.5422C66.2731 13.0177 66.1002 12.4478 65.6749 12.1013L59.8367 6.60708C59.1906 6.05975 58.9759 5.15544 59.3068 4.37593C59.6034 3.70054 60.1449 3.16251 60.8222 2.8699H60.8686C61.6386 2.57265 62.5123 2.79669 63.044 3.42769L68.6219 9.32165C68.9721 9.69769 69.5058 9.84202 69.9978 9.69351L84.8721 5.20331L86.3131 6.64426L74.5066 13.1332C73.853 13.4897 73.6122 14.3087 73.969 14.962C73.9746 14.9723 73.9801 14.9823 73.986 14.9925C74.0417 15.0948 81.1535 22.6621 81.1535 22.6621C81.5059 23.0349 82.0393 23.1755 82.5294 23.0246L87.001 21.6766L87.6982 22.3739L83.5148 24.6887Z" fill="#D8A95B"/>
<path d="M79.9189 63.8898C79.8986 63.8779 79.878 63.8663 79.857 63.8556C79.1907 63.5072 78.3682 63.7499 77.9978 64.4041C77.4121 65.4732 76.7706 66.5237 76.0827 67.5277C75.6385 68.1592 75.7905 69.0312 76.422 69.4753C77.0535 69.9195 77.9255 69.7675 78.3696 69.136C79.0947 68.0576 79.7827 66.9327 80.4148 65.7986C80.8051 65.1343 80.5829 64.2798 79.9189 63.8898Z" fill="#D8A95B"/>
<path d="M84.3311 43.5328C83.5611 43.5224 82.9283 44.138 82.9176 44.908C82.9173 44.9269 82.9173 44.9457 82.918 44.9645V45.1225C82.918 46.3404 82.8622 47.5675 82.7507 48.7853C82.681 49.5523 83.246 50.2307 84.0129 50.3004C84.0136 50.3004 84.0143 50.3007 84.015 50.3007H84.1452C84.8807 50.3076 85.495 49.742 85.5489 49.0085C85.6698 47.7163 85.7256 46.4055 85.7256 45.104V44.918C85.7204 44.1515 85.0976 43.5328 84.3311 43.5328Z" fill="#D8A95B"/>
<path d="M35.3687 84.4767C34.1601 84.2722 32.9609 84.0119 31.7988 83.6587C31.0723 83.4032 30.2763 83.7851 30.0206 84.5116C29.765 85.2381 30.1471 86.0341 30.8736 86.2898C30.9268 86.3086 30.9814 86.324 31.0365 86.3363C32.2822 86.6895 33.5651 86.9963 34.848 87.2659H35.1084C35.8786 87.3377 36.5612 86.7718 36.633 86.0016C36.7048 85.2314 36.1389 84.5488 35.3687 84.4767Z" fill="#D8A95B"/>
<path d="M56.9448 84.0513C56.6926 83.3666 55.9552 82.9919 55.2536 83.1923V83.2295C54.1008 83.6106 52.9108 83.936 51.7302 84.1591C50.9781 84.3285 50.5056 85.0757 50.675 85.8278C50.8445 86.5799 51.5917 87.0524 52.3438 86.883C53.6081 86.5948 54.8817 86.2415 56.1181 85.8418C56.8409 85.5754 57.2109 84.7738 56.9448 84.0513Z" fill="#D8A95B"/>
<path d="M25.7993 81.4364C24.693 80.8879 23.6053 80.293 22.5548 79.698C21.8899 79.3078 21.0346 79.5304 20.6444 80.1953C20.2542 80.8603 20.4768 81.7156 21.1418 82.1058C22.2666 82.7658 23.4287 83.3794 24.6093 83.9651C25.3075 84.2937 26.14 83.9939 26.4686 83.2957C26.7973 82.5976 26.4977 81.7651 25.7993 81.4364Z" fill="#D8A95B"/>
<path d="M73.9966 72.465C73.4379 71.9549 72.574 71.9832 72.0502 72.5294H72.0595C71.2228 73.4591 70.3396 74.2771 69.4378 75.0859C68.8629 75.5993 68.8129 76.4818 69.3263 77.0568C69.8397 77.6318 70.7222 77.6817 71.2971 77.1683C72.2268 76.3038 73.2122 75.3834 74.0861 74.4352C74.6055 73.8662 74.5653 72.9842 73.9966 72.465Z" fill="#D8A95B"/>
<path d="M66.304 79.4207C65.9089 78.7597 65.0527 78.5442 64.3915 78.9393C64.3692 78.9526 64.3473 78.9665 64.3259 78.9812V78.944C63.3033 79.5947 62.2342 80.2083 61.1558 80.8033C60.4705 81.1549 60.1999 81.9958 60.5516 82.6812C60.9032 83.3665 61.7441 83.6371 62.4295 83.2854C63.5822 82.6905 64.7257 82.0304 65.8227 81.3332C66.4836 80.9378 66.6993 80.0816 66.304 79.4207Z" fill="#D8A95B"/>
</svg>
