<svg width="107" height="107" viewBox="0 0 107 107" fill="none" xmlns="http://www.w3.org/2000/svg">
<g filter="url(#filter0_i_47_376)">
<circle cx="53.1917" cy="53.1917" r="53.1917" fill="white"/>
</g>
<circle cx="53.1917" cy="53.1917" r="51.1917" stroke="#D8A95B" stroke-width="4"/>
<g clip-path="url(#clip0_47_376)">
<path d="M76.8006 53.9236C76.8011 52.5265 76.6802 51.1319 76.4405 49.7555L74.4584 50.1018C75.934 58.5588 72.3864 67.1062 65.3559 72.0322L63.7354 69.3865C63.1871 68.4993 63.1395 67.3911 63.6086 66.4597L64.0659 65.5456C64.2354 65.2042 64.5842 64.9885 64.9654 64.99H66.3841C67.6195 64.9939 68.7316 64.2413 69.187 63.0929L70.5482 59.6881C70.6916 59.332 70.7653 58.9508 70.7643 58.5667V56.3532C70.7658 55.8192 70.5536 55.3064 70.1749 54.9296L68.9674 53.7227C68.3554 53.1096 67.4196 52.9578 66.6444 53.3454L64.1686 54.5838C63.8857 54.7253 63.5526 54.7253 63.2692 54.5838L59.245 52.5717C58.9051 52.4018 58.6909 52.054 58.6919 51.6742V48.8934C58.6919 47.7822 57.791 46.8813 56.6798 46.8813C56.1243 46.8813 55.6738 46.4309 55.6738 45.8753V44.8693C55.6738 44.5529 55.8231 44.2547 56.0761 44.0646L59.2956 41.6502L58.0882 40.0405L54.8692 42.4549C54.1112 43.0267 53.6642 43.9202 53.6617 44.8693V45.8753C53.6617 47.542 55.0131 48.8934 56.6798 48.8934V51.6742C56.6759 52.8183 57.3229 53.8651 58.3481 54.3735L62.3722 56.3856C63.2225 56.8086 64.2217 56.8086 65.072 56.3856L67.5483 55.1482L68.7552 56.3552V58.5686C68.7557 58.6964 68.7307 58.8231 68.683 58.942L67.3208 62.3472C67.1695 62.7303 66.7987 62.9813 66.387 62.9799H64.9683C63.8243 62.9759 62.7775 63.6229 62.2695 64.6481L61.8117 65.5628C61.0297 67.1145 61.1092 68.9616 62.0219 70.4407L63.6617 73.1178C57.4643 76.6856 49.9215 77.0266 43.4275 74.0335L44.6619 73.2092C44.826 73.0992 45.0191 73.0397 45.217 73.0383H47.7974C48.5986 73.0407 49.3674 72.7224 49.9323 72.1541L52.7775 69.3089C53.3454 68.7439 53.6642 67.9752 53.6617 67.174V62.5275C53.6617 61.9822 53.5139 61.4472 53.2344 60.9791L51.0852 57.3853C50.5356 56.4878 49.5595 55.9391 48.5068 55.9357H45.6837C44.6732 55.9347 43.7291 56.4392 43.1686 57.2797L42.0569 58.9538H39.5772C38.4661 58.9538 37.5651 59.8547 37.5651 60.9658V62.8875C37.5651 63.2289 37.3917 63.5472 37.1044 63.7324L33.9654 65.7568C31.7141 62.2209 30.5195 58.1152 30.5229 53.9236C30.5229 53.5866 30.5327 53.2516 30.5479 52.9175H32.2977C32.6789 52.9166 33.0277 53.1322 33.1971 53.4741L34.3751 55.835C34.7155 56.5163 35.4131 56.9451 36.175 56.9417H37.237C37.8692 56.9427 38.4651 56.647 38.8458 56.1425C39.227 55.638 39.3488 54.9841 39.1749 54.3765L37.8933 49.8994H39.8788C40.5646 49.8994 41.2292 49.6661 41.7642 49.2378L45.048 46.6107C46.1057 45.7618 46.4687 44.3127 45.9362 43.0655L44.2139 39.0413C44.0155 38.5786 44.1899 38.0407 44.6216 37.7818L47.1549 36.2619C48.073 35.7083 48.6306 34.7102 48.6203 33.6378L48.6035 32.1661C51.8481 31.557 55.1885 31.6827 58.378 32.5345L58.8933 30.5946C48.9017 27.9229 38.3182 31.9111 32.5752 40.5125C26.8323 49.114 27.2051 60.4176 33.5027 68.6216C39.8002 76.8261 50.6235 80.108 60.4171 76.7834C70.2107 73.4588 76.7991 64.2659 76.8006 53.9236ZM46.5944 32.6421L46.6062 33.6663C46.6106 34.0239 46.4245 34.3565 46.1174 34.5402L43.5832 36.0605C42.2932 36.8411 41.773 38.4514 42.363 39.8391L44.0852 43.8632C44.2635 44.2788 44.1427 44.7627 43.7895 45.0456L40.5056 47.6722C40.3273 47.8127 40.1063 47.8883 39.8788 47.8874H37.8933C37.2611 47.8864 36.6652 48.1826 36.2845 48.6871C35.9033 49.1911 35.7815 49.8454 35.9554 50.4531L37.237 54.9296H36.175L34.9965 52.5737C34.4886 51.5485 33.4418 50.9015 32.2977 50.9055H30.7341C31.9455 42.2176 38.162 35.0594 46.5944 32.6421ZM35.1203 67.4044L38.1949 65.4228C39.058 64.8686 39.5787 63.9127 39.5772 62.8875V60.9658H42.0569C42.7299 60.9658 43.3582 60.6293 43.7311 60.0693L44.8466 58.3957C45.0333 58.1157 45.3477 57.9477 45.6837 57.9477H48.5068C48.8551 57.9482 49.1788 58.1285 49.362 58.4247L51.5067 62.0122C51.6005 62.1679 51.6497 62.3457 51.6497 62.5275V67.174C51.6497 67.4412 51.544 67.6976 51.3549 67.8863L48.5097 70.7315C48.3211 70.9206 48.0647 71.0267 47.7974 71.0262H45.217C44.6207 71.0262 44.0371 71.203 43.5409 71.5341L41.3953 72.967C38.971 71.5263 36.8416 69.6385 35.1203 67.4044Z" fill="#D8A95B"/>
<path d="M24.5545 54.9023L22.5479 55.0423C22.595 55.7232 22.6662 56.4124 22.7601 57.0893L24.754 56.8137C24.6665 56.182 24.5987 55.5331 24.5545 54.9023Z" fill="#D8A95B"/>
<path d="M27.6059 40.0173L25.8183 39.0938C25.5044 39.697 25.2072 40.3282 24.9355 40.958L26.7831 41.7557C27.0385 41.1682 27.316 40.5836 27.6059 40.0173Z" fill="#D8A95B"/>
<path d="M25.082 58.707L23.1122 59.1206C23.2532 59.7917 23.4143 60.4637 23.6034 61.1209L25.5389 60.5747C25.3669 59.9597 25.2132 59.3338 25.082 58.707Z" fill="#D8A95B"/>
<path d="M25.057 47.249L23.0852 46.8467C22.9496 47.5133 22.8337 48.1976 22.7433 48.8774L24.7372 49.1442C24.8217 48.5095 24.9293 47.8714 25.057 47.249Z" fill="#D8A95B"/>
<path d="M29.6006 36.7291L27.9545 35.5703C27.5625 36.1283 27.1833 36.709 26.8281 37.2955L28.5484 38.3389C28.8805 37.7902 29.2347 37.2493 29.6006 36.7291Z" fill="#D8A95B"/>
<path d="M26.0825 43.546L24.1853 42.8779C23.9569 43.5268 23.7496 44.1861 23.5674 44.8438L25.5072 45.3802C25.6752 44.7682 25.8693 44.1517 26.0825 43.546Z" fill="#D8A95B"/>
<path d="M24.5481 51.0564L22.536 50.9258C22.4952 51.5826 22.4746 52.2462 22.4746 52.9167V52.9811L24.4867 52.9167C24.4867 52.2924 24.5073 51.6724 24.5481 51.0564Z" fill="#D8A95B"/>
<path d="M26.1234 62.4053L24.2302 63.0832C24.4616 63.7291 24.716 64.3722 24.9887 64.9945L26.8328 64.1899C26.5783 63.6073 26.3396 63.008 26.1234 62.4053Z" fill="#D8A95B"/>
<path d="M32.0206 33.7411L30.5469 32.3721C30.0812 32.8751 29.6264 33.3973 29.197 33.9263L30.7601 35.1942C31.1605 34.699 31.5854 34.2102 32.0206 33.7411Z" fill="#D8A95B"/>
<path d="M48.7326 25.0212L48.4506 23.0273C47.7767 23.1212 47.0939 23.2405 46.4219 23.3815L46.835 25.3523C47.4618 25.2187 48.0999 25.1077 48.7326 25.0212Z" fill="#D8A95B"/>
<path d="M52.5637 24.7484L52.5553 22.7363C51.8671 22.7363 51.175 22.7638 50.498 22.812L50.641 24.824C51.2762 24.7735 51.9167 24.7484 52.5637 24.7484Z" fill="#D8A95B"/>
<path d="M44.9674 25.8104L44.4212 23.874C43.7664 24.0587 43.1052 24.27 42.4597 24.5028L43.1396 26.396C43.7423 26.1799 44.3568 25.9834 44.9674 25.8104Z" fill="#D8A95B"/>
<path d="M34.8226 31.1119L33.5488 29.5547C33.0198 29.987 32.4986 30.4438 32.001 30.9115L33.3779 32.3783C33.8426 31.9416 34.3299 31.5152 34.8226 31.1119Z" fill="#D8A95B"/>
<path d="M41.3563 27.1068L40.5512 25.2637C39.9288 25.5363 39.3049 25.836 38.6963 26.1538L39.6277 27.9364C40.1931 27.6397 40.7747 27.3642 41.3563 27.1068Z" fill="#D8A95B"/>
<path d="M37.9537 28.8843L36.901 27.1689C36.3175 27.5271 35.7403 27.9092 35.1847 28.3047L36.3509 29.9444C36.8701 29.5774 37.4085 29.2179 37.9537 28.8843Z" fill="#D8A95B"/>
<path d="M63.8984 78.753L64.7036 80.5971C65.3304 80.3245 65.9537 80.0258 66.5594 79.7109L65.6339 77.9258C65.0666 78.2195 64.483 78.4986 63.8984 78.753Z" fill="#D8A95B"/>
<path d="M73.2471 72.1381L74.7183 73.5125C75.185 73.0095 75.6408 72.4903 76.0721 71.9603L74.512 70.6895C74.1087 71.1846 73.6818 71.6724 73.2471 72.1381Z" fill="#D8A95B"/>
<path d="M70.4407 74.7639L71.712 76.3231C72.241 75.8913 72.7622 75.4359 73.2623 74.9698L71.8893 73.499C71.4202 73.9372 70.9373 74.3587 70.4407 74.7639Z" fill="#D8A95B"/>
<path d="M75.6757 69.1571L77.3188 70.3223C77.7133 69.7637 78.0945 69.1851 78.4496 68.5995L76.7313 67.5537C76.3983 68.0946 76.0441 68.6359 75.6757 69.1571Z" fill="#D8A95B"/>
<path d="M67.3047 76.9829L68.35 78.7002C68.9316 78.3451 69.5098 77.9649 70.0693 77.5694L68.9061 75.9277C68.3883 76.2971 67.847 76.6523 67.3047 76.9829Z" fill="#D8A95B"/>
<path d="M60.2832 80.0401L60.8265 81.978C61.4833 81.7938 62.1445 81.5835 62.7895 81.3541L62.112 79.459C61.5083 79.6771 60.8958 79.8692 60.2832 80.0401Z" fill="#D8A95B"/>
<path d="M80.7607 54.8397L82.7679 54.9743C82.8141 54.2924 82.8372 53.6003 82.8372 52.917H80.8251C80.8251 53.563 80.8035 54.204 80.7607 54.8397Z" fill="#D8A95B"/>
<path d="M80.2421 58.6457L82.2129 59.048C82.3509 58.3809 82.4673 57.6966 82.5602 57.0177L80.5663 56.7471C80.4798 57.3857 80.3708 58.0228 80.2421 58.6457Z" fill="#D8A95B"/>
<path d="M79.2091 62.3455L81.1043 63.0184C81.3347 62.3705 81.5439 61.7108 81.7271 61.0545L79.7888 60.5137C79.6173 61.1243 79.4223 61.7408 79.2091 62.3455Z" fill="#D8A95B"/>
<path d="M77.6749 65.8732L79.4615 66.8002C79.7764 66.1965 80.0741 65.5677 80.3467 64.9389L78.5017 64.1338C78.2472 64.7223 77.9687 65.3068 77.6749 65.8732Z" fill="#D8A95B"/>
<path d="M27.6605 65.9209L25.8768 66.8523C26.1937 67.456 26.5351 68.0597 26.8902 68.6418L28.6115 67.5925C28.2755 67.0507 27.9577 66.4883 27.6605 65.9209Z" fill="#D8A95B"/>
<path d="M33.6417 76.3585C34.1747 76.7918 34.7273 77.2103 35.2834 77.6028L36.4403 75.9557C35.9166 75.5858 35.4052 75.1987 34.9061 74.7949L33.6417 76.3585Z" fill="#D8A95B"/>
<path d="M40.6648 80.6224C41.2896 80.8931 41.9356 81.1475 42.5855 81.3779L43.2565 79.4808C42.6528 79.2651 42.0491 79.0289 41.4665 78.7764L40.6648 80.6224Z" fill="#D8A95B"/>
<path d="M37.0046 78.7286C37.5921 79.0857 38.1969 79.4247 38.8025 79.7346L39.727 77.9466C39.1616 77.6548 38.5982 77.3379 38.049 77.0049L37.0046 78.7286Z" fill="#D8A95B"/>
<path d="M30.624 73.5483C31.0936 74.0513 31.5849 74.5391 32.0815 75.0028L33.454 73.5301C32.9893 73.0973 32.5305 72.6405 32.0918 72.1729L30.624 73.5483Z" fill="#D8A95B"/>
<path d="M29.6651 69.1973L28.0234 70.36C28.4189 70.9175 28.8384 71.4667 29.2707 71.9983L30.8249 70.7235C30.4226 70.2303 30.0335 69.7175 29.6651 69.1973Z" fill="#D8A95B"/>
<path d="M56.5217 80.8232L56.7944 82.8162C57.4698 82.7233 58.1526 82.6069 58.8246 82.4669L58.4164 80.4971C57.7866 80.6268 57.152 80.7368 56.5217 80.8232Z" fill="#D8A95B"/>
<path d="M48.582 82.825C49.255 82.9159 49.9442 82.9851 50.6309 83.0264L50.7651 81.0143C50.122 80.9721 49.479 80.9068 48.8537 80.8223L48.582 82.825Z" fill="#D8A95B"/>
<path d="M52.6857 81.0859V83.0979C53.3749 83.0979 54.067 83.0739 54.7444 83.0267L54.6064 81.0146C53.9727 81.0623 53.3326 81.0859 52.6857 81.0859Z" fill="#D8A95B"/>
<path d="M44.5499 81.9965C45.2111 82.1802 45.8851 82.3433 46.5522 82.4804L46.9545 80.5095C46.3316 80.3818 45.7028 80.2295 45.0873 80.0586L44.5499 81.9965Z" fill="#D8A95B"/>
<path d="M60.9051 31.2259L60.3265 41.0652C60.2425 42.4996 60.7754 43.9016 61.7913 44.9184L63.7429 46.8681L67.295 37.6257L70.8859 41.2161V45.6568C70.8844 46.456 71.2027 47.2233 71.7701 47.7862L73.5145 49.5321L75.6484 45.9756L76.1602 46.4864C76.9182 47.2714 78.0402 47.5858 79.0958 47.3097C80.151 47.0337 80.9748 46.2094 81.2513 45.1542C81.5274 44.0991 81.2125 42.9766 80.428 42.2191L79.9171 41.7078L83.4741 39.5734L81.7298 37.8266C81.1653 37.2582 80.3971 36.9399 79.5959 36.9424H75.1532L71.5687 33.353L80.8166 29.7965L78.8605 27.8438C77.8451 26.827 76.4427 26.2945 75.0088 26.38L65.1695 26.9586L61.9333 23.7209C60.7386 22.5813 58.8592 22.5813 57.6645 23.7209C56.4855 24.8999 56.4855 26.8108 57.6645 27.9897L60.9051 31.2259ZM62.9835 43.236C62.5227 42.6544 62.2919 41.9234 62.3346 41.1827L62.8081 33.1344L65.7418 36.068L62.9835 43.236ZM73.118 46.2772C72.9761 46.0984 72.8985 45.8768 72.898 45.6484V43.2232L74.1845 44.5078L73.118 46.2772ZM79.5949 38.9515C79.8233 38.952 80.0449 39.0296 80.2237 39.1716L78.4513 40.241L77.1663 38.9574L79.5949 38.9515ZM75.1262 28.3881C75.867 28.3444 76.5984 28.5758 77.1795 29.037L70.0076 31.7953L67.074 28.8617L75.1262 28.3881ZM59.0881 25.1445C59.4806 24.7525 60.1167 24.7525 60.5097 25.1445L79.0054 43.6408C79.3974 44.0333 79.3974 44.6694 79.0054 45.0619C78.6075 45.4426 77.9807 45.4426 77.5828 45.0619L59.0881 26.5661C58.6961 26.1732 58.6961 25.5375 59.0881 25.1445Z" fill="#D8A95B"/>
</g>
<defs>
<filter id="filter0_i_47_376" x="0" y="0" width="106.383" height="110.384" filterUnits="userSpaceOnUse" color-interpolation-filters="sRGB">
<feFlood flood-opacity="0" result="BackgroundImageFix"/>
<feBlend mode="normal" in="SourceGraphic" in2="BackgroundImageFix" result="shape"/>
<feColorMatrix in="SourceAlpha" type="matrix" values="0 0 0 0 0 0 0 0 0 0 0 0 0 0 0 0 0 0 127 0" result="hardAlpha"/>
<feOffset dy="4"/>
<feGaussianBlur stdDeviation="4.85"/>
<feComposite in2="hardAlpha" operator="arithmetic" k2="-1" k3="1"/>
<feColorMatrix type="matrix" values="0 0 0 0 0 0 0 0 0 0 0 0 0 0 0 0 0 0 0.15 0"/>
<feBlend mode="normal" in2="shape" result="effect1_innerShadow_47_376"/>
</filter>
<clipPath id="clip0_47_376">
<rect width="61" height="61" fill="white" transform="translate(22.4746 22.4756)"/>
</clipPath>
</defs>
</svg>
