<svg width="88" height="88" viewBox="0 0 88 88" fill="none" xmlns="http://www.w3.org/2000/svg">
<path d="M44.0006 2.93328C45.42 2.93329 46.8385 3.00577 48.2505 3.15045L48.5506 0.232564C44.5056 -0.182469 40.4229 -0.0415126 36.4162 0.651503L36.9186 3.54146C39.2575 3.13642 41.6269 2.93294 44.0006 2.93328Z" fill="black"/>
<path d="M19.9272 10.7249L18.2058 8.34985C12.5651 12.4259 7.97314 17.7834 4.80799 23.9813C1.64284 30.1792 -0.00498606 37.0402 0.000175211 43.9995C-0.0190228 50.7688 1.53969 57.4495 4.55263 63.5113L7.18085 62.209C4.36948 56.5516 2.91522 50.3169 2.93346 43.9995C2.92823 37.5037 4.4662 31.0995 7.4207 25.3144C10.3752 19.5294 14.6617 14.5289 19.9272 10.7249Z" fill="black"/>
<path d="M45.4163 85.0411L45.5155 87.9726C49.6419 87.8351 53.7282 87.1165 57.6539 85.8379L56.7442 83.0493C53.0806 84.2423 49.2671 84.9129 45.4163 85.0411Z" fill="black"/>
<path d="M17.5998 42.5322H20.5331V76.265H17.5998V42.5322Z" fill="black"/>
<path d="M26.3996 42.5322H29.3329V76.265H26.3996V42.5322Z" fill="black"/>
<path d="M35.1984 42.5322H38.1317V76.265H35.1984V42.5322Z" fill="black"/>
<path d="M87.1688 45.4147L60.7349 32.6994C59.6831 32.195 58.4741 32.1284 57.3732 32.5142C56.2724 32.9 55.3695 33.7067 54.8626 34.7574L46.9337 51.2412V36.666C46.9315 34.7218 46.1581 32.8579 44.7834 31.4831C43.4086 30.1084 41.5447 29.335 39.6005 29.3328H33.7339V5.86657C33.7339 4.31066 33.1158 2.81847 32.0156 1.71828C30.9154 0.618083 29.4232 0 27.8673 0C26.3114 0 24.8192 0.618083 23.719 1.71828C22.6188 2.81847 22.0008 4.31066 22.0008 5.86657V29.3328H16.1342C14.19 29.335 12.326 30.1084 10.9513 31.4831C9.5765 32.8579 8.80319 34.7218 8.80098 36.666V74.7987C8.80277 76.3049 9.26751 77.7741 10.1322 79.0073C10.997 80.2405 12.2199 81.1781 13.6353 81.693C13.3214 82.3456 13.1733 83.0656 13.2044 83.7892C13.2354 84.5128 13.4446 85.2175 13.8133 85.8408C14.1821 86.4641 14.699 86.9868 15.3181 87.3625C15.9373 87.7381 16.6396 87.9552 17.3628 87.9943C18.086 88.0334 18.8076 87.8935 19.4637 87.5868C20.1198 87.2801 20.6901 86.8163 21.1239 86.2364C21.5578 85.6565 21.8417 84.9784 21.9507 84.2624C22.0596 83.5465 21.9902 82.8146 21.7485 82.1319H33.9862C33.7447 82.8145 33.6754 83.5462 33.7845 84.262C33.8936 84.9778 34.1776 85.6556 34.6114 86.2353C35.0452 86.815 35.6154 87.2787 36.2713 87.5852C36.9273 87.8917 37.6488 88.0317 38.3717 87.9925C39.0947 87.9534 39.7969 87.7365 40.4159 87.3609C41.035 86.9854 41.5518 86.4629 41.9205 85.8398C42.2892 85.2167 42.4985 84.5122 42.5297 83.7888C42.5609 83.0654 42.413 82.3455 42.0993 81.693C43.2522 81.2722 44.2816 80.5698 45.0938 79.6497C45.906 78.7295 46.4753 77.6209 46.7497 76.4247L67.4606 86.3869C67.6341 86.4705 67.8224 86.5191 68.0148 86.5299C68.2071 86.5407 68.3997 86.5135 68.5815 86.4498C68.7633 86.3861 68.9308 86.2872 69.0743 86.1587C69.2179 86.0302 69.3347 85.8747 69.418 85.701L87.8547 47.3721C88.0233 47.0215 88.0458 46.6184 87.9171 46.2513C87.7885 45.8842 87.5193 45.5833 87.1688 45.4147ZM58.8302 35.1982C59.0495 35.1981 59.266 35.2476 59.4635 35.3428L84.5755 47.4222L83.304 50.0656L58.1919 37.9864C57.842 37.8175 57.5732 37.5169 57.4445 37.1502C57.3158 36.7836 57.3377 36.3809 57.5053 36.0303L57.506 36.0289C57.6262 35.7798 57.8141 35.5697 58.0484 35.4227C58.2827 35.2758 58.5536 35.1979 58.8302 35.1982ZM24.934 5.86657C24.934 5.08861 25.2431 4.34252 25.7932 3.79242C26.3433 3.24233 27.0894 2.93328 27.8673 2.93328C28.6453 2.93328 29.3914 3.24233 29.9415 3.79242C30.4916 4.34252 30.8006 5.08861 30.8006 5.86657V29.3328H24.934V5.86657ZM19.0675 83.5986C19.0675 83.8887 18.9815 84.1722 18.8203 84.4134C18.6591 84.6546 18.4301 84.8426 18.1621 84.9536C17.8941 85.0646 17.5992 85.0936 17.3147 85.037C17.0302 84.9805 16.7689 84.8408 16.5638 84.6357C16.3586 84.4305 16.219 84.1692 16.1624 83.8847C16.1058 83.6002 16.1348 83.3053 16.2458 83.0373C16.3568 82.7693 16.5448 82.5403 16.786 82.3791C17.0272 82.218 17.3108 82.1319 17.6008 82.1319C17.9897 82.1324 18.3625 82.2871 18.6374 82.562C18.9124 82.837 19.067 83.2097 19.0675 83.5986ZM38.1338 85.0652C37.8437 85.0652 37.5602 84.9792 37.319 84.8181C37.0778 84.6569 36.8898 84.4278 36.7788 84.1598C36.6678 83.8919 36.6388 83.597 36.6954 83.3125C36.7519 83.028 36.8916 82.7666 37.0967 82.5615C37.3019 82.3564 37.5632 82.2167 37.8477 82.1601C38.1322 82.1035 38.4271 82.1326 38.6951 82.2436C38.9631 82.3546 39.1921 82.5426 39.3533 82.7838C39.5144 83.025 39.6005 83.3085 39.6005 83.5986C39.6 83.9874 39.4454 84.3602 39.1704 84.6352C38.8954 84.9101 38.5227 85.0648 38.1338 85.0652ZM39.6005 79.1987H16.1342C14.9677 79.1973 13.8493 78.7333 13.0244 77.9085C12.1996 77.0836 11.7356 75.9653 11.7343 74.7987V36.666C11.7356 35.4995 12.1996 34.3812 13.0244 33.5563C13.8493 32.7314 14.9677 32.2675 16.1342 32.2661H22.0008V39.5993H24.934V32.2661H30.8006V39.5993H33.7339V32.2661H39.6005C40.767 32.2675 41.8853 32.7314 42.7102 33.5563C43.5351 34.3812 43.9991 35.4995 44.0004 36.666V57.3394L38.9689 67.7996C38.7185 68.3203 38.573 68.8852 38.5409 69.4622C38.5087 70.0391 38.5905 70.6167 38.7816 71.1619C38.9727 71.7072 39.2693 72.2096 39.6545 72.6402C40.0398 73.0709 40.506 73.4214 41.0267 73.6719L43.9892 75.0968C43.9125 76.209 43.4169 77.2507 42.6025 78.0119C41.788 78.7731 40.7153 79.1972 39.6005 79.1987ZM67.4104 83.1079L42.2982 71.0286C41.9477 70.86 41.6785 70.559 41.5499 70.1919C41.4213 69.8248 41.4437 69.4216 41.6124 69.0711L55.7081 39.7666C56.0601 40.1214 56.4701 40.4133 56.9205 40.6297L82.0326 52.7089L67.4104 83.1079Z" fill="black"/>
<path d="M67.544 48.9948C65.7143 48.1147 63.6646 47.797 61.6543 48.0819C59.644 48.3667 57.7633 49.2412 56.25 50.5949C54.7367 51.9486 53.6588 53.7206 53.1525 55.6868C52.6463 57.6531 52.7345 59.7253 53.406 61.6415C54.0774 63.5576 55.302 65.2317 56.9249 66.4518C58.5477 67.672 60.4959 68.3836 62.5232 68.4966C64.5504 68.6095 66.5657 68.1188 68.314 67.0865C70.0624 66.0542 71.4654 64.5266 72.3456 62.6969C73.5227 60.2427 73.6783 57.4218 72.7781 54.853C71.878 52.2842 69.9956 50.1774 67.544 48.9948ZM70.2049 60.0398L67.5754 58.775C68.163 57.154 68.4515 55.4398 68.4271 53.7157L68.4193 53.2074C69.2659 54.1052 69.8732 55.2015 70.1852 56.3954C70.4972 57.5894 70.504 58.8426 70.2049 60.0398ZM61.0873 62.9221L60.7009 63.2213L60.6934 62.7327C60.676 61.4643 60.8721 60.2019 61.2733 58.9985L63.6427 60.1382C62.953 61.2028 62.0891 62.1439 61.0873 62.9221ZM62.5448 56.3552C63.2345 55.2905 64.0984 54.3493 65.1003 53.571L65.4867 53.2719L65.4942 53.7605C65.5116 55.029 65.3155 56.2914 64.9142 57.4949L62.5448 56.3552ZM63.1054 50.9138C63.305 50.9138 63.5051 50.9248 63.7052 50.9413L63.3046 51.2515C61.9424 52.3086 60.7832 53.6042 59.8835 55.0751L57.257 53.8117C57.9432 52.9113 58.8279 52.1813 59.8423 51.6787C60.8567 51.1761 61.9733 50.9143 63.1054 50.9138ZM55.9815 56.453L58.6121 57.7184C58.0246 59.3393 57.736 61.0535 57.7605 62.7775L57.7683 63.2906C56.9198 62.3929 56.3113 61.2958 55.999 60.1007C55.6867 58.9056 55.6807 57.6511 55.9815 56.453ZM62.4812 65.5528L62.883 65.2417C64.2452 64.1846 65.4043 62.8891 66.304 61.4183L68.9335 62.6831C68.1848 63.6641 67.2015 64.441 66.074 64.9424C64.9465 65.4439 63.711 65.6538 62.4812 65.5528Z" fill="black"/>
<path d="M48.8166 70.9043L50.0866 68.2616L63.3011 74.6121L62.031 77.2549L48.8166 70.9043Z" fill="black"/>
<path d="M63.3695 20.2288C62.5103 19.3717 61.3461 18.8903 60.1325 18.8903C58.9188 18.8903 57.7547 19.3717 56.8955 20.2288C56.5868 20.5368 56.1686 20.7097 55.7326 20.7097C55.2965 20.7097 54.8783 20.5368 54.5696 20.2288L54.203 19.8621C52.2732 17.9369 49.6586 16.8557 46.9327 16.8557C44.2068 16.8557 41.5922 17.9369 39.6624 19.8621C39.2699 20.2568 38.8029 20.5698 38.2886 20.7828C37.7743 20.9958 37.2229 21.1047 36.6662 21.1032V24.0365C37.6082 24.0391 38.5414 23.8548 39.4117 23.4943C40.282 23.1338 41.0722 22.6043 41.7365 21.9364C43.1157 20.5603 44.9844 19.7875 46.9327 19.7875C48.881 19.7875 50.7497 20.5603 52.1289 21.9364L52.4955 22.3031C53.3548 23.1602 54.5189 23.6415 55.7326 23.6415C56.9462 23.6415 58.1103 23.1602 58.9696 22.3031C59.2782 21.995 59.6964 21.822 60.1325 21.822C60.5685 21.822 60.9868 21.995 61.2954 22.3031L63.9986 25.0063C69.2557 30.2926 76.315 33.3986 83.7641 33.703C84.3949 36.148 84.7983 38.6461 84.9693 41.1653L87.8957 40.9659C87.5078 35.1535 85.9588 29.4778 83.3401 24.2742L80.7188 25.5908C81.55 27.2464 82.2677 28.9565 82.867 30.7094C76.5197 30.2058 70.5623 27.447 66.0727 22.932L63.3695 20.2288Z" fill="black"/>
<path d="M50.5673 7.118L74.9961 22.0467C75.8379 22.5638 76.8296 22.7817 77.8107 22.665C78.7918 22.5483 79.7047 22.1038 80.4017 21.4036L86.1019 15.7036C86.3769 15.4285 86.5315 15.0554 86.5315 14.6664C86.5315 14.2774 86.3769 13.9043 86.1019 13.6293L83.1686 10.696C82.9288 10.4563 82.6134 10.3071 82.276 10.2737C81.9387 10.2403 81.6001 10.3248 81.318 10.5128L77.7316 12.9037L71.0353 8.43945L74.505 3.81322C74.7168 3.53079 74.8197 3.18142 74.7946 2.82926C74.7696 2.47709 74.6184 2.14578 74.3687 1.89614L72.9021 0.429498C72.6844 0.211855 72.4038 0.068215 72.1 0.0189259C71.7961 -0.0303632 71.4845 0.017197 71.2092 0.154869L63.1294 4.19475L60.4142 2.56554C59.0124 1.72232 57.3686 1.37278 55.745 1.57266C54.1214 1.77255 52.6115 2.51035 51.456 3.66839L50.295 4.82942C50.1381 4.98631 50.0189 5.17676 49.9462 5.38642C49.8736 5.59607 49.8495 5.81948 49.8757 6.0398C49.9019 6.26013 49.9778 6.47164 50.0976 6.6584C50.2174 6.84516 50.378 7.00231 50.5673 7.118ZM58.9051 5.08096L62.3106 7.12427C62.5222 7.25117 62.7624 7.32265 63.0089 7.3321C63.2555 7.34156 63.5004 7.28867 63.7211 7.17834L71.0707 3.5035L67.7585 7.9199C67.6388 8.07945 67.5529 8.26174 67.5061 8.45562C67.4593 8.64949 67.4525 8.85088 67.4862 9.04747C67.5198 9.24406 67.5933 9.43171 67.702 9.59895C67.8106 9.76619 67.9523 9.9095 68.1182 10.0201L76.9181 15.8867C77.159 16.0473 77.4421 16.133 77.7316 16.133C78.0212 16.133 78.3042 16.0473 78.5452 15.8867L81.9446 13.6203L82.9906 14.6664L78.3275 19.3295C78.0952 19.5629 77.7909 19.7111 77.4639 19.7499C77.1369 19.7888 76.8063 19.7162 76.5257 19.5438L53.6912 5.58942C54.3904 4.95598 55.275 4.5645 56.2141 4.47293C57.1531 4.38135 58.0967 4.59455 58.9051 5.08096Z" fill="black"/>
</svg>
